<?xml version="1.0" standalone="no"?>
<!DOCTYPE svg PUBLIC "-//W3C//DTD SVG 20010904//EN"
 "http://www.w3.org/TR/2001/REC-SVG-20010904/DTD/svg10.dtd">
<svg version="1.0" xmlns="http://www.w3.org/2000/svg"
 width="2560.000000pt" height="2560.000000pt" viewBox="0 0 2560.000000 2560.000000"
 preserveAspectRatio="xMidYMid meet">

<g transform="translate(0.000000,2560.000000) scale(0.100000,-0.100000)"
fill="#000000" stroke="none">
<path d="M17711 21583 c-19 -2 -43 -11 -55 -18 -12 -8 -64 -18 -116 -24 -52
-6 -113 -18 -136 -25 -23 -8 -88 -18 -145 -21 -75 -5 -111 -12 -129 -24 -17
-12 -53 -20 -106 -23 -51 -4 -91 -12 -107 -22 -14 -10 -56 -19 -99 -23 -40 -3
-85 -12 -101 -20 -15 -7 -67 -18 -115 -24 -48 -6 -101 -17 -118 -24 -17 -8
-68 -17 -115 -20 -46 -4 -104 -15 -129 -25 -25 -10 -81 -21 -125 -25 -44 -4
-87 -13 -95 -20 -8 -8 -53 -19 -100 -25 -47 -6 -103 -17 -125 -25 -22 -7 -78
-16 -125 -20 -46 -4 -94 -14 -106 -22 -12 -8 -63 -18 -114 -24 -51 -5 -113
-18 -137 -29 -27 -12 -67 -20 -100 -20 -31 0 -67 -7 -86 -17 -20 -10 -71 -19
-138 -24 -68 -4 -115 -13 -130 -22 -13 -9 -53 -19 -89 -23 -36 -3 -83 -14
-105 -24 -22 -10 -77 -20 -122 -24 -45 -3 -94 -13 -109 -21 -15 -8 -53 -17
-83 -20 -31 -3 -90 -15 -131 -25 -41 -11 -111 -22 -155 -26 -44 -4 -87 -12
-95 -20 -9 -7 -47 -18 -85 -24 -38 -6 -74 -15 -80 -20 -7 -6 -59 -15 -116 -20
-57 -6 -119 -18 -138 -26 -19 -8 -78 -19 -131 -24 -53 -4 -111 -15 -128 -24
-17 -9 -63 -19 -104 -22 -45 -4 -81 -14 -95 -24 -13 -10 -51 -21 -89 -25 -36
-4 -82 -14 -102 -22 -22 -9 -81 -17 -142 -20 -69 -3 -120 -11 -150 -23 -25
-10 -70 -21 -100 -25 -30 -3 -79 -15 -108 -26 -29 -10 -69 -19 -90 -19 -20 0
-68 -9 -107 -20 -38 -11 -106 -22 -150 -26 -44 -3 -98 -12 -120 -19 -22 -8
-68 -19 -102 -24 -33 -5 -81 -16 -105 -25 -25 -8 -74 -18 -109 -22 -35 -4 -74
-14 -87 -22 -15 -10 -60 -16 -135 -19 -88 -4 -118 -9 -139 -24 -17 -12 -56
-21 -116 -27 -57 -6 -96 -15 -106 -24 -9 -9 -45 -18 -88 -22 -40 -4 -91 -13
-114 -21 -22 -7 -84 -18 -139 -24 -54 -6 -112 -18 -129 -25 -17 -8 -60 -17
-97 -20 -36 -3 -81 -15 -102 -25 -20 -10 -68 -21 -106 -25 -39 -4 -83 -14 -99
-22 -16 -8 -71 -17 -123 -20 -52 -4 -106 -13 -121 -20 -14 -8 -59 -17 -100
-20 -40 -3 -86 -13 -103 -21 -16 -8 -60 -19 -97 -24 -37 -4 -84 -17 -105 -29
-21 -11 -50 -20 -64 -20 -15 0 -32 -7 -39 -14 -6 -8 -28 -20 -48 -27 -20 -6
-41 -16 -47 -23 -5 -6 -32 -28 -60 -49 -66 -49 -105 -85 -105 -95 0 -5 -13
-21 -30 -35 -16 -15 -30 -34 -30 -42 0 -8 -11 -22 -25 -31 -16 -11 -25 -26
-25 -43 0 -14 -9 -42 -19 -62 -11 -20 -23 -58 -27 -85 -4 -27 -14 -67 -23 -89
-15 -36 -16 -472 -21 -4981 -4 -3840 -8 -4944 -17 -4955 -7 -8 -17 -49 -23
-90 -7 -40 -20 -90 -31 -110 -10 -20 -19 -43 -19 -51 0 -23 -94 -151 -147
-201 -60 -57 -205 -147 -237 -147 -9 0 -27 -6 -39 -14 -12 -8 -60 -20 -106
-26 -47 -6 -98 -18 -113 -26 -15 -8 -60 -19 -98 -23 -39 -5 -77 -14 -85 -21
-8 -6 -67 -17 -132 -24 -65 -6 -128 -18 -140 -24 -13 -7 -65 -17 -117 -21 -58
-6 -104 -16 -118 -25 -12 -9 -34 -16 -48 -16 -14 0 -50 -7 -80 -16 -30 -8
-102 -23 -160 -34 -58 -10 -120 -23 -138 -28 -18 -6 -66 -16 -107 -22 -42 -6
-88 -18 -103 -26 -15 -7 -38 -14 -52 -14 -14 0 -38 -7 -55 -16 -16 -8 -55 -20
-85 -25 -30 -5 -71 -16 -90 -24 -19 -8 -61 -19 -92 -25 -32 -6 -60 -15 -63
-20 -3 -5 -25 -14 -48 -20 -38 -10 -105 -38 -177 -75 -14 -7 -38 -15 -54 -19
-17 -4 -41 -15 -55 -25 -14 -10 -39 -21 -55 -25 -15 -4 -40 -15 -55 -25 -95
-65 -169 -111 -179 -111 -6 0 -26 -16 -44 -36 -18 -20 -50 -45 -71 -56 -41
-20 -252 -229 -302 -298 -16 -23 -38 -49 -48 -58 -10 -9 -24 -31 -31 -48 -8
-17 -27 -46 -42 -65 -16 -19 -56 -87 -88 -151 -32 -65 -62 -118 -66 -118 -4 0
-10 -19 -14 -41 -4 -23 -18 -65 -31 -94 -14 -28 -25 -64 -25 -78 0 -15 -11
-61 -25 -103 -16 -48 -25 -99 -25 -139 0 -34 -7 -82 -17 -106 -23 -63 -24
-342 -1 -454 10 -44 20 -111 24 -150 3 -38 13 -81 21 -94 8 -13 19 -57 25 -98
5 -41 15 -85 23 -96 8 -12 28 -56 46 -97 17 -41 37 -82 43 -90 7 -8 18 -34 24
-56 7 -23 19 -47 27 -54 8 -7 15 -21 15 -31 0 -10 5 -21 10 -24 6 -4 22 -23
35 -43 14 -21 43 -64 65 -97 22 -33 48 -70 57 -83 32 -41 217 -226 268 -267
55 -45 60 -49 190 -135 50 -32 97 -66 106 -75 8 -8 31 -18 50 -21 19 -4 45
-15 58 -26 13 -10 31 -18 41 -18 10 0 29 -9 43 -20 14 -11 33 -20 42 -20 9 0
35 -9 58 -21 23 -11 80 -27 126 -35 47 -9 94 -21 105 -27 21 -12 99 -19 365
-33 131 -7 408 6 556 26 39 6 135 19 215 30 80 11 163 26 185 34 22 8 67 17
100 21 32 5 65 14 72 21 7 7 39 16 70 20 31 4 75 15 97 24 23 10 61 21 86 25
25 4 56 13 70 20 103 51 157 75 171 75 9 0 22 7 29 15 7 8 27 17 45 21 19 3
41 14 50 24 10 11 31 22 49 26 17 4 43 16 57 28 14 11 58 41 98 66 134 84 305
226 396 330 28 31 66 74 85 96 19 21 40 53 46 69 6 17 25 39 42 50 17 11 34
29 38 40 3 11 16 36 28 55 60 92 93 147 102 170 6 14 32 68 57 120 25 52 49
110 52 128 4 17 11 32 15 32 5 0 14 19 21 43 6 23 17 49 24 57 7 8 16 42 20
75 4 33 16 85 26 115 10 30 23 101 28 157 5 55 15 111 21 123 7 13 18 114 25
226 8 112 17 210 22 216 4 7 10 1978 13 4380 l5 4366 21 29 c12 16 25 43 29
61 3 18 15 37 26 42 10 6 19 17 19 24 0 12 19 30 96 91 17 13 50 29 74 34 24
5 47 16 52 25 5 9 32 17 76 21 37 4 72 11 77 15 6 5 43 15 83 23 40 9 83 22
95 30 14 9 62 16 126 20 66 3 107 10 111 18 5 7 56 18 125 26 65 7 123 17 129
22 16 12 100 31 139 31 21 0 41 7 51 19 14 15 35 19 119 23 77 3 109 8 130 22
19 13 57 21 132 26 58 4 111 12 118 18 6 5 48 15 92 22 44 7 86 17 92 22 7 6
50 14 95 19 45 5 93 16 105 24 12 8 44 15 70 16 66 1 177 21 194 36 8 6 55 15
104 19 60 4 100 13 121 25 20 12 50 19 85 19 88 0 129 10 129 30 0 10 -6 20
-12 23 -7 2 46 3 117 3 108 -1 135 2 157 16 18 12 58 20 115 25 58 4 98 13
118 25 17 10 46 18 66 18 73 0 97 10 104 42 4 16 4 32 1 36 -4 3 -83 7 -177 7
-162 2 -171 3 -194 25 -24 23 -26 23 -192 16 -92 -4 -173 -12 -180 -18 -7 -5
-15 -30 -19 -54 l-6 -44 -44 0 c-40 0 -44 -2 -44 -25 0 -21 -5 -25 -28 -25
-20 0 -32 7 -39 23 l-10 22 -7 -22 c-4 -13 -14 -23 -21 -23 -26 0 -61 -21 -70
-43 -7 -15 -21 -23 -42 -25 -32 -3 -33 -2 -33 32 l0 36 -122 0 c-110 0 -124 2
-144 21 l-22 21 -7 -21 c-5 -17 -15 -21 -51 -21 -41 0 -44 -2 -35 -19 8 -14 5
-23 -15 -42 -20 -19 -38 -24 -92 -27 -58 -2 -75 1 -127 27 l-60 30 33 7 c24 5
30 9 20 15 -18 12 -98 11 -98 -1 0 -38 -14 -47 -90 -54 -39 -3 -78 -10 -88
-15 -15 -9 -160 -41 -182 -41 -5 0 -16 7 -25 16 -20 21 -105 11 -105 -12 0 -8
-8 -14 -19 -14 -10 0 -45 -12 -77 -26 -56 -26 -67 -27 -233 -28 -128 -1 -178
2 -187 12 -8 8 -15 9 -19 2 -10 -16 -52 -12 -59 6 -3 9 -6 29 -6 45 0 27 -2
29 -40 29 -29 0 -40 4 -40 15 0 20 -6 19 -29 -4 -17 -17 -30 -18 -128 -14 -88
5 -115 3 -140 -11 -26 -13 -63 -16 -186 -16 -139 0 -156 2 -171 19 -13 14 -16
28 -12 48 l7 28 320 2 c176 1 318 -1 315 -5 -2 -4 17 -5 42 -2 44 4 45 5 11 8
-33 3 -35 5 -31 32 3 24 9 30 28 30 22 0 44 25 44 49 0 7 -24 11 -60 11 l-60
0 0 -50 c0 -43 -3 -50 -20 -50 -19 0 -20 7 -20 95 l0 95 -45 0 c-38 0 -45 3
-45 20 0 17 7 20 45 20 l45 0 0 45 0 45 45 0 45 0 0 90 0 90 29 0 c37 0 41 12
41 115 0 46 -3 90 -6 99 -5 14 -30 16 -170 16 l-164 0 0 65 0 65 158 0 c153 0
159 1 180 23 19 20 22 35 22 98 0 41 -5 80 -11 86 -8 8 -8 13 0 17 6 4 11 39
11 81 0 63 -3 76 -19 85 -11 6 -89 10 -180 10 l-161 0 0 55 0 55 -365 0 c-358
0 -365 0 -365 20 0 20 7 20 500 20 l500 0 0 89 0 90 27 3 c20 2 30 10 34 28
21 76 29 127 29 185 l0 65 45 0 45 0 0 45 0 45 45 0 45 0 0 90 0 90 65 0 65 0
0 -68 c0 -37 4 -72 10 -77 6 -7 -5 -10 -28 -10 -34 0 -37 -3 -40 -30 -5 -40
-19 -55 -52 -55 -34 0 -46 -15 -52 -63 l-4 -38 100 2 c67 1 101 -2 104 -10 13
-39 16 11 9 161 -4 94 -5 178 -2 186 4 11 33 13 145 10 140 -3 140 -3 140 20
0 22 -2 22 -135 22 l-135 0 0 65 0 64 346 3 345 3 -7 -73 c-7 -76 3 -106 32
-95 11 4 14 44 14 224 l0 219 335 0 335 0 0 -24 c0 -13 6 -29 14 -35 22 -18
30 3 36 89 l5 75 68 3 67 3 0 -31 c0 -29 -1 -30 -50 -30 l-50 0 0 -65 0 -65
30 0 c28 0 30 2 30 40 l0 40 45 0 45 0 0 45 0 45 45 0 45 0 0 45 0 45 45 0
c38 0 45 3 45 19 0 25 18 27 183 23 l127 -3 0 -43 c0 -51 21 -76 45 -56 9 8
15 30 15 56 l0 44 65 0 65 0 0 -51 c0 -59 22 -65 30 -8 4 30 9 34 40 37 19 2
38 8 41 13 3 6 159 10 405 9 l400 0 24 25 23 25 -23 25 -24 26 -173 -3 -173
-3 0 105 c0 142 3 150 51 150 36 0 39 2 39 29 0 47 22 61 99 61 71 0 91 10 91
45 0 27 18 45 46 45 34 0 43 20 46 100 l3 75 40 5 c39 5 40 6 40 43 0 43 -18
55 -23 15 -3 -26 -7 -28 -48 -28 l-44 0 0 -90 0 -90 -45 0 -45 0 0 -45 0 -45
-95 0 -95 0 0 -45 c0 -33 -4 -45 -15 -45 -12 0 -15 17 -15 90 l0 90 -75 0 -75
0 0 -45 0 -45 -90 0 -90 0 0 -45 0 -45 -45 0 -45 0 0 -95 0 -95 -45 0 -45 0 0
-44 0 -44 -157 -6 c-87 -3 -200 -9 -250 -12 l-93 -6 0 174 c0 158 -2 177 -19
192 -17 16 -19 16 -25 -6 -3 -13 -6 -94 -6 -180 l0 -158 -29 0 c-16 0 -34 -7
-41 -15 -8 -10 -37 -15 -93 -17 -81 -3 -82 -3 -85 -30 -4 -33 -18 -45 -57 -50
-26 -2 -30 -8 -33 -35 -4 -38 -17 -50 -57 -55 -25 -2 -31 -8 -37 -38 -6 -29
-6 -27 -4 13 3 35 0 47 -10 47 -10 0 -14 -13 -14 -45 l0 -45 -335 0 -335 0 0
125 0 125 334 0 c213 0 337 4 341 10 4 7 -110 10 -334 10 l-341 0 0 124 c0
110 -2 125 -17 129 -16 4 -16 5 1 6 17 1 18 7 13 54 -12 102 -21 97 184 97
172 0 179 1 179 20 0 19 7 20 155 20 154 0 155 0 155 -22 1 -13 7 -34 15 -48
8 -14 14 -35 15 -47 0 -22 4 -23 80 -23 72 0 80 2 80 19 0 11 8 34 17 53 31
62 33 68 33 93 0 18 5 25 20 25 13 0 20 7 20 20 0 15 7 20 25 20 20 0 25 5 25
25 0 18 5 25 20 25 15 0 20 -7 20 -26 0 -32 34 -64 67 -64 18 0 23 -5 23 -27
0 -16 4 -34 9 -42 14 -22 41 5 41 40 l0 29 119 0 c130 0 131 1 131 61 0 19 5
29 15 29 11 0 15 12 15 50 l0 50 138 0 c94 0 142 4 150 12 17 17 15 48 -5 70
-14 16 -14 18 0 18 33 0 47 -13 53 -50 6 -37 6 -37 64 -43 31 -4 200 -10 374
-13 l316 -7 0 21 c0 17 -8 22 -45 28 -35 5 -45 11 -45 25 0 10 8 23 18 29 14
9 12 10 -15 7 -18 -2 -30 0 -27 5 3 4 -13 8 -35 8 -22 0 -43 5 -46 10 -3 6
-22 10 -41 10 -30 0 -34 3 -34 25 0 14 6 25 13 26 29 1 -32 18 -69 18 -26 1
-44 6 -47 15 -7 18 13 26 68 26 26 0 50 6 59 16 9 8 21 12 27 8 14 -8 89 -8
141 2 35 6 37 5 43 -22 12 -54 24 -74 46 -74 12 0 27 -8 34 -17 12 -16 14 -16
30 0 14 15 34 17 129 15 110 -3 111 -3 114 -28 l3 -25 -170 0 c-93 0 -167 -3
-164 -7 2 -5 -1 -8 -7 -8 -6 0 -8 -4 -5 -10 3 -5 18 -10 32 -10 14 0 32 -8 39
-17 10 -14 31 -19 102 -21 86 -4 90 -3 109 22 30 38 51 33 59 -11 4 -21 11
-44 17 -50 12 -16 174 -18 197 -3 8 5 11 10 6 10 -5 0 -3 7 4 15 9 10 9 15 1
15 -6 0 -11 17 -11 39 0 47 -8 51 -96 51 -57 0 -64 2 -64 20 0 17 7 20 46 20
27 0 43 4 39 10 -4 6 8 10 27 11 39 2 24 5 -54 14 -52 6 -58 9 -58 30 0 20 6
23 55 30 30 3 80 3 110 0 44 -6 55 -11 55 -26 0 -13 -9 -19 -37 -22 -33 -4
-32 -4 7 -3 40 1 45 4 48 26 3 23 6 25 43 22 23 -3 52 1 64 8 18 10 34 10 64
2 23 -5 41 -6 41 -1 0 5 -10 9 -22 10 l-23 0 23 11 c13 7 22 20 22 35 0 22 2
23 90 23 67 0 90 3 89 13 -4 30 2 37 34 36 17 0 26 -3 19 -6 -9 -3 -3 -12 17
-24 22 -13 50 -19 96 -19 63 0 65 1 65 25 0 23 4 25 45 25 l45 0 0 45 0 45 48
0 c39 0 53 5 72 25 23 25 26 25 177 25 127 0 155 -3 159 -15 8 -21 24 -19 24
3 0 15 9 17 67 14 61 -4 129 5 203 26 18 5 26 16 28 35 3 26 5 27 68 27 57 0
64 -2 64 -20 0 -16 -7 -20 -35 -20 -30 0 -35 -3 -35 -23 0 -21 4 -23 48 -20
46 3 93 9 140 19 17 3 22 11 22 34 l0 30 64 0 65 0 3 -32 c2 -17 8 -33 14 -35
8 -3 14 23 19 77 l7 80 119 0 119 0 0 56 c0 48 3 57 21 61 16 4 17 8 7 14 -8
6 3 9 30 9 24 0 41 -4 37 -9 -3 -5 -1 -12 4 -15 5 -3 7 -15 4 -25 -3 -10 0
-28 6 -40 11 -19 22 -21 104 -23 l92 -2 -100 -6 c-90 -6 -82 -6 80 -9 393 -6
557 -3 510 9 -30 8 -30 8 -3 9 41 2 63 12 46 22 -10 7 -9 9 3 9 18 0 33 26 24
41 -10 15 -126 28 -354 37 -43 2 -44 2 -26 22 20 22 85 28 85 9 0 -8 4 -8 14
0 7 6 61 14 120 16 58 3 118 10 132 15 32 13 91 13 98 1 4 -5 60 -12 125 -16
100 -6 120 -10 124 -24 3 -15 -8 -20 -72 -30 -114 -19 -111 -18 -111 -57 0
-32 -2 -34 -37 -36 l-38 -1 45 -7 45 -7 -40 -3 c-35 -2 -32 -4 25 -12 36 -5
82 -7 103 -4 l37 4 0 -169 c0 -154 2 -169 18 -169 9 -1 27 -9 40 -19 21 -18
22 -26 22 -176 0 -86 -4 -164 -9 -173 -7 -14 -1 -250 13 -447 2 -27 5 -167 7
-310 2 -143 6 -285 10 -315 4 -30 10 -154 13 -275 9 -331 16 -467 28 -497 6
-15 8 -34 5 -42 -8 -21 12 -285 23 -306 13 -24 47 -26 77 -5 21 15 23 14 27
-7 3 -13 7 -320 11 -683 3 -363 7 -815 9 -1005 2 -190 5 -484 6 -655 2 -170 5
-346 9 -390 12 -153 21 1334 21 3523 0 1846 -2 2207 -14 2230 -7 15 -18 56
-24 91 -7 41 -19 71 -32 83 -11 10 -20 28 -20 39 0 11 -11 30 -25 43 -14 13
-25 27 -25 32 -1 13 -105 97 -143 114 -18 8 -37 22 -44 30 -9 12 -45 15 -200
16 -103 1 -203 0 -222 -3z m659 -370 c0 -5 -5 -15 -10 -23 -8 -12 -10 -11 -10
8 0 12 5 22 10 22 6 0 10 -3 10 -7z m-1883 -113 c14 -20 22 -22 85 -18 51 3
74 8 83 21 7 9 24 17 39 17 24 0 27 -3 24 -27 l-3 -28 -161 -1 -160 0 -12 24
c-16 35 -6 45 45 39 31 -3 49 -12 60 -27z m1928 -19 c3 -5 1 -12 -5 -16 -5 -3
-10 1 -10 9 0 18 6 21 15 7z m-3670 -191 c-3 -5 -24 -10 -46 -10 -21 0 -39 5
-39 10 0 6 21 10 46 10 27 0 43 -4 39 -10z m418 -72 c8 -27 6 -29 -21 -21 -28
7 -30 43 -3 43 11 0 21 -9 24 -22z m95 10 c16 -16 15 -45 0 -50 -18 -7 -78 10
-78 21 0 38 50 57 78 29z m-278 -193 c0 -8 -9 -15 -20 -15 -11 0 -20 7 -20 15
0 8 9 15 20 15 11 0 20 -7 20 -15z m-1535 -104 c7 -12 -12 -24 -25 -16 -11 7
-4 25 10 25 5 0 11 -4 15 -9z m-71 -74 c12 -33 -2 -47 -48 -47 -90 0 -132 60
-51 73 65 10 89 4 99 -26z m506 -7 c0 -11 -7 -20 -15 -20 -8 0 -15 9 -15 20 0
11 7 20 15 20 8 0 15 -9 15 -20z m188 -57 c-10 -2 -26 -2 -35 0 -10 3 -2 5 17
5 19 0 27 -2 18 -5z m642 -33 c0 -13 -7 -20 -20 -20 -13 0 -20 7 -20 20 0 13
7 20 20 20 13 0 20 -7 20 -20z m-1657 -27 c-7 -2 -19 -2 -25 0 -7 3 -2 5 12 5
14 0 19 -2 13 -5z m730 -10 c-7 -2 -19 -2 -25 0 -7 3 -2 5 12 5 14 0 19 -2 13
-5z m-2155 -215 c-3 -7 -20 -13 -38 -13 -18 0 -35 6 -37 13 -3 8 8 12 37 12
29 0 40 -4 38 -12z m-755 -85 c-7 -2 -21 -2 -30 0 -10 3 -4 5 12 5 17 0 24 -2
18 -5z m2917 -208 l0 -205 -200 0 c-193 0 -200 1 -200 20 0 17 7 20 45 20 l45
0 0 90 0 90 45 0 45 0 0 45 0 45 90 0 90 0 0 50 c0 43 3 50 20 50 19 0 20 -7
20 -205z m-2392 161 c34 -7 62 -10 62 -5 0 5 7 9 15 9 18 0 20 -17 3 -23 -25
-8 1 -19 61 -24 51 -5 61 -9 61 -24 0 -18 -10 -19 -135 -19 l-135 0 0 -45 c0
-43 -1 -45 -30 -45 -20 0 -30 5 -30 15 0 8 5 15 10 15 15 0 13 117 -2 123 -20
6 10 37 36 37 11 -1 49 -7 84 -14z m233 -19 c-10 -9 -11 -8 -5 6 3 10 9 15 12
12 3 -3 0 -11 -7 -18z m-198 -104 c-7 -2 -13 -16 -13 -29 0 -19 -5 -24 -25
-24 -20 0 -25 5 -25 23 0 31 7 37 44 36 17 0 25 -3 19 -6z m-425 -19 c89 -11
58 -39 -53 -47 -26 -2 -30 2 -33 26 -4 30 -1 31 86 21z m142 -19 c0 -8 -9 -15
-20 -15 -11 0 -20 7 -20 15 0 8 9 15 20 15 11 0 20 -7 20 -15z m-97 -42 c-7
-2 -21 -2 -30 0 -10 3 -4 5 12 5 17 0 24 -2 18 -5z m97 -43 l0 -30 -115 0
-115 0 0 25 c0 23 3 24 78 28 42 1 94 4 115 5 35 2 37 0 37 -28z m-262 -7 c3
-22 0 -23 -72 -23 -69 0 -76 2 -76 19 0 21 35 29 110 27 28 -1 36 -5 38 -23z
m-198 -3 c0 -13 -7 -20 -20 -20 -13 0 -20 7 -20 20 0 13 7 20 20 20 13 0 20
-7 20 -20z m550 0 c0 -13 -7 -20 -20 -20 -13 0 -20 7 -20 20 0 13 7 20 20 20
13 0 20 -7 20 -20z m-1945 -9 c8 -14 -12 -23 -36 -16 -17 6 -19 9 -8 16 18 11
36 11 44 0z m215 0 c23 -7 23 -8 -12 -15 -41 -8 -91 1 -82 15 6 10 58 10 94 0z
m296 -46 c6 -15 -11 -45 -26 -45 -17 0 -53 37 -46 48 11 17 66 15 72 -3z m345
-34 c31 -35 -13 -65 -65 -45 -9 3 -13 10 -10 15 3 5 0 9 -5 9 -6 0 -11 9 -11
20 0 16 7 20 38 20 24 0 43 -7 53 -19z m-11 -181 l0 -110 -335 0 -335 0 0 110
0 110 335 0 335 0 0 -110z m190 90 c0 -17 -7 -20 -45 -20 l-45 0 0 -45 c0 -38
-3 -45 -20 -45 -18 0 -20 7 -20 65 l0 65 65 0 c58 0 65 -2 65 -20z m450 0 c0
-17 -7 -20 -45 -20 l-45 0 0 -45 c0 -38 -3 -45 -20 -45 -18 0 -20 7 -20 65 l0
65 65 0 c58 0 65 -2 65 -20z m820 -45 l0 -65 -335 0 -335 0 0 65 0 65 335 0
335 0 0 -65z m-1000 -135 c0 -13 -7 -20 -20 -20 -13 0 -20 7 -20 20 0 13 7 20
20 20 13 0 20 -7 20 -20z m-90 -135 l0 -65 -45 0 -45 0 0 -45 0 -45 -45 0 -45
0 0 -50 0 -50 -45 0 -45 0 0 -45 c0 -38 -3 -45 -20 -45 -19 0 -20 7 -20 110
l0 110 90 0 90 0 0 50 0 50 45 0 45 0 0 45 c0 38 3 45 20 45 18 0 20 -7 20
-65z m1110 -47 l0 -23 -345 3 c-336 2 -345 3 -345 22 0 20 8 20 345 20 l345 0
0 -22z m-2280 -269 c0 -24 -4 -29 -25 -29 -19 0 -25 5 -25 23 0 13 5 28 11 34
18 18 39 3 39 -28z m1530 -279 c0 -11 -7 -20 -15 -20 -8 0 -15 9 -15 20 0 11
7 20 15 20 8 0 15 -9 15 -20z m27 -12 c-3 -7 -5 -2 -5 12 0 14 2 19 5 13 2 -7
2 -19 0 -25z m-1477 -583 c0 -58 -2 -65 -20 -65 -18 0 -20 7 -20 65 0 58 2 65
20 65 18 0 20 -7 20 -65z m1090 -720 l0 -75 -45 0 -45 0 0 -45 0 -45 -45 0
c-41 0 -45 -2 -45 -24 0 -13 5 -26 12 -28 7 -3 9 -14 4 -31 -6 -26 -9 -27 -76
-27 l-70 0 0 75 0 75 91 0 90 0 -3 100 -3 100 68 0 67 0 0 -75z m-370 -560 l0
-65 -335 0 -335 0 0 65 0 65 335 0 335 0 0 -65z m-67 -82 c-46 -2 -120 -2
-165 0 -46 1 -9 3 82 3 91 0 128 -2 83 -3z m-383 -118 l0 -95 45 0 c38 0 45
-3 45 -20 0 -19 -7 -20 -155 -20 -148 0 -155 1 -155 20 0 19 7 20 90 20 l90 0
0 95 c0 88 1 95 20 95 19 0 20 -7 20 -95z m90 65 c0 -13 -7 -20 -20 -20 -13 0
-20 7 -20 20 0 13 7 20 20 20 13 0 20 -7 20 -20z m2575 -10 c3 -5 -3 -10 -15
-10 -12 0 -18 5 -15 10 3 6 10 10 15 10 5 0 12 -4 15 -10z m-659 -45 c18 -13
15 -14 -28 -15 -38 0 -46 3 -42 15 8 19 44 19 70 0z m527 5 c13 0 17 -4 12 -9
-14 -14 -129 -18 -133 -6 -4 14 37 25 72 19 16 -2 38 -4 49 -4z m-2083 -40 c0
-19 -7 -20 -155 -20 -148 0 -155 1 -155 20 0 19 7 20 155 20 148 0 155 -1 155
-20z m1750 -6 c49 -10 16 -24 -57 -24 -58 0 -73 6 -56 23 8 9 71 9 113 1z
m160 -4 c11 -7 4 -10 -25 -10 -29 0 -36 3 -25 10 8 5 20 10 25 10 6 0 17 -5
25 -10z m-2540 -174 c0 -20 -16 -36 -36 -36 -2 0 -4 14 -4 30 0 23 4 30 20 30
14 0 20 -7 20 -24z m338 -44 c15 -10 5 -42 -13 -42 -7 0 -18 7 -26 16 -10 13
-10 17 2 25 17 11 21 11 37 1z m179 -15 c4 -7 23 -18 42 -23 42 -11 51 -31 20
-43 -32 -11 -55 -3 -67 24 -7 16 -23 26 -46 31 -20 3 -33 10 -30 15 8 14 72
11 81 -4z m-519 -69 c3 -63 1 -68 -18 -68 -18 0 -20 6 -20 60 0 33 -4 60 -10
60 -5 0 -10 4 -10 9 0 4 12 8 28 7 26 -1 27 -3 30 -68z m695 -29 c-8 -8 -16
-8 -30 0 -16 9 -14 10 12 11 21 0 26 -3 18 -11z m-52 -42 c-8 -8 -11 -7 -11 4
0 20 13 34 18 19 3 -7 -1 -17 -7 -23z m-171 9 c0 -3 -4 -8 -10 -11 -5 -3 -10
-1 -10 4 0 6 5 11 10 11 6 0 10 -2 10 -4z m105 -56 c-3 -5 -12 -10 -20 -10 -8
0 -17 5 -20 10 -4 6 5 10 20 10 15 0 24 -4 20 -10z m-155 -176 c0 -11 -5 -14
-16 -10 -9 3 -18 6 -20 6 -3 0 -2 5 1 10 10 16 35 12 35 -6z m-508 -426 c2
-29 2 -99 -1 -155 -3 -90 -6 -103 -21 -103 -15 0 -18 14 -22 103 -8 142 -1
207 22 207 15 0 19 -10 22 -52z m-2 -8823 c0 -18 5 -25 19 -25 24 0 28 -13 37
-109 l7 -74 -39 6 c-21 4 -87 7 -146 7 -101 0 -108 1 -108 20 0 17 7 20 50 20
l50 0 0 45 0 45 45 0 45 0 0 45 c0 38 3 45 20 45 15 0 20 -7 20 -25z m145
-236 c10 -15 -4 -61 -16 -53 -13 8 -28 46 -22 57 6 11 31 9 38 -4z m-59 -236
c-10 -10 -19 5 -10 18 6 11 8 11 12 0 2 -7 1 -15 -2 -18z m-456 -96 l0 -44 63
3 c34 2 86 0 115 -3 l52 -5 0 -39 c0 -35 -3 -39 -25 -39 -23 0 -25 -4 -25 -45
0 -38 -3 -45 -20 -45 -17 0 -20 -7 -20 -45 0 -41 -2 -45 -25 -45 -22 0 -25 -4
-25 -35 0 -31 3 -36 30 -41 37 -8 38 -17 3 -39 -24 -16 -27 -16 -38 -1 -7 9
-10 27 -7 41 4 24 3 25 -57 25 l-61 0 0 65 c0 62 1 65 25 65 21 0 45 24 45 44
0 3 -27 6 -60 6 l-60 0 0 -90 0 -90 -110 0 -110 0 0 110 0 110 45 0 45 0 0 45
0 45 90 0 90 0 0 45 c0 38 3 45 20 45 17 0 20 -7 20 -43z m470 -42 c0 -8 -4
-15 -10 -15 -5 0 -10 7 -10 15 0 8 5 15 10 15 6 0 10 -7 10 -15z m-207 -352
c4 -3 0 -15 -10 -25 -15 -17 -17 -17 -35 -2 -10 10 -18 21 -18 26 0 10 54 11
63 1z m-533 -34 c0 -12 -7 -19 -20 -19 -14 0 -20 7 -20 24 0 19 4 23 20 19 11
-3 20 -14 20 -24z m374 -122 c-3 -9 -10 -17 -15 -17 -11 0 -12 34 -2 43 11 12
24 -8 17 -26z m136 -17 c0 -11 -4 -20 -10 -20 -5 0 -10 9 -10 20 0 11 5 20 10
20 6 0 10 -9 10 -20z m-480 -194 c0 -9 -30 -14 -35 -6 -4 6 3 10 14 10 12 0
21 -2 21 -4z m85 -51 c0 -14 -8 -21 -25 -23 -14 -2 -29 -10 -33 -18 -4 -8 -14
-14 -21 -14 -8 0 -21 -10 -30 -22 l-16 -23 2 30 c2 24 8 31 28 33 18 2 29 12
37 33 9 24 17 30 35 27 15 -2 23 -10 23 -23z m174 -79 c9 -10 7 -16 -5 -27
-13 -10 -17 -10 -24 1 -9 14 -3 40 10 40 4 0 13 -6 19 -14z m-147 -18 c-6 -6
-16 -7 -22 -3 -9 6 -9 9 1 16 17 10 34 0 21 -13z m-52 -38 c0 -5 -6 -10 -13
-10 -8 0 -19 -10 -25 -22 -11 -23 -11 -23 -11 4 -1 14 5 29 12 31 21 9 37 7
37 -3z m150 -4 c0 -11 -19 -15 -25 -6 -3 5 1 10 9 10 9 0 16 -2 16 -4z m-992
-169 c15 -18 -12 -59 -33 -51 -18 7 -20 50 -2 57 20 9 24 8 35 -6z"/>
<path d="M15250 20612 c0 -6 5 -14 10 -17 12 -8 13 -65 1 -84 -9 -13 -41 -12
-161 5 -33 5 -34 5 -15 -11 15 -12 39 -15 105 -13 l85 3 3 51 c2 36 -1 54 -13
64 -9 8 -15 8 -15 2z"/>
<path d="M14773 20403 c9 -2 23 -2 30 0 6 3 -1 5 -18 5 -16 0 -22 -2 -12 -5z"/>
<path d="M16000 20315 c-13 -14 -21 -25 -18 -25 10 0 51 40 46 45 -2 3 -15 -6
-28 -20z"/>
<path d="M15280 20305 c0 -8 5 -15 10 -15 6 0 10 7 10 15 0 8 -4 15 -10 15 -5
0 -10 -7 -10 -15z"/>
<path d="M14345 20300 c-4 -6 5 -10 20 -10 15 0 24 4 20 10 -3 6 -12 10 -20
10 -8 0 -17 -4 -20 -10z"/>
<path d="M14520 20135 c0 -21 5 -25 31 -25 29 0 30 2 18 18 -31 39 -49 42 -49
7z"/>
<path d="M14180 20045 l-23 -25 26 0 c22 0 27 5 27 25 0 14 -1 25 -3 25 -2 0
-14 -11 -27 -25z"/>
<path d="M14520 20023 c0 -37 6 -53 27 -75 26 -27 31 -28 120 -28 l93 0 0 75
c0 73 -1 75 -25 75 -20 0 -25 -5 -25 -25 0 -14 5 -25 10 -25 15 0 12 -40 -5
-56 -10 -11 -32 -14 -77 -12 l-62 3 3 58 2 57 -30 0 c-30 0 -31 -1 -31 -47z"/>
<path d="M14092 19957 c-28 -30 -28 -37 3 -37 21 0 25 5 25 30 0 36 -1 36 -28
7z"/>
<path d="M14911 19864 c-13 -14 -22 -27 -19 -29 2 -3 15 6 28 20 13 14 21 27
19 29 -2 3 -15 -6 -28 -20z"/>
<path d="M13830 19675 c0 -14 5 -25 10 -25 6 0 10 11 10 25 0 14 -4 25 -10 25
-5 0 -10 -11 -10 -25z"/>
<path d="M14315 19600 c-50 -7 -65 -16 -65 -38 1 -25 27 -57 33 -40 4 10 6 10
6 1 1 -9 23 -13 74 -13 64 0 76 3 95 23 12 13 22 36 22 50 0 27 -1 28 -62 25
-35 -1 -81 -5 -103 -8z"/>
<path d="M14520 19587 c0 -13 13 -35 28 -50 27 -26 32 -27 141 -27 107 0 113
1 138 26 l25 25 -23 25 c-26 28 -73 32 -103 9 -27 -20 -144 -20 -170 0 -27 21
-36 19 -36 -8z"/>
<path d="M15095 19570 c-8 -13 4 -32 16 -25 12 8 12 35 0 35 -6 0 -13 -4 -16
-10z"/>
<path d="M11150 18685 c0 -9 9 -15 25 -15 16 0 25 6 25 15 0 9 -9 15 -25 15
-16 0 -25 -6 -25 -15z"/>
<path d="M16990 17618 c-37 -9 -41 -12 -25 -19 27 -11 137 -11 154 0 11 7 10
11 -7 20 -24 13 -60 13 -122 -1z"/>
<path d="M17292 17577 c-18 -21 -4 -27 65 -27 70 0 84 14 26 25 -21 3 -47 9
-59 11 -11 3 -26 -1 -32 -9z"/>
<path d="M16800 17527 c0 -14 5 -29 10 -32 20 -12 -1 -25 -41 -25 -32 0 -39 3
-39 20 0 11 -4 20 -9 20 -4 0 -20 -9 -34 -20 -17 -13 -40 -20 -71 -20 -42 0
-46 -2 -46 -25 l0 -25 -102 0 c-112 0 -178 -13 -178 -35 0 -18 -63 -27 -125
-17 -27 4 -68 5 -90 1 -33 -6 -43 -4 -57 12 -21 25 -64 24 -106 -1 -18 -11
-39 -20 -47 -20 -23 0 -121 -23 -110 -26 102 -28 125 -36 125 -43 0 -5 -21
-12 -47 -16 -27 -4 -61 -12 -78 -19 l-30 -13 39 -8 c55 -11 186 2 206 20 11
10 48 17 111 21 69 4 101 11 121 25 21 15 53 21 124 26 64 4 97 10 101 19 6
16 64 36 95 34 67 -6 118 1 118 14 0 20 21 24 134 24 57 0 101 4 105 10 15 24
71 32 230 32 154 0 169 -2 186 -20 9 -10 37 -22 61 -26 25 -3 55 -16 69 -30
14 -13 33 -24 41 -24 8 0 17 -13 21 -32 5 -27 7 -29 14 -13 22 56 2 95 -49 95
-13 0 -22 9 -26 25 -3 13 -14 29 -24 34 -27 15 -178 41 -235 41 -29 0 -57 6
-66 14 -11 10 -58 17 -158 22 l-143 7 0 -26z"/>
<path d="M15573 17393 c-21 -8 -15 -22 17 -38 47 -24 120 -18 120 11 0 7 -9
18 -19 24 -20 10 -96 13 -118 3z"/>
<path d="M15610 17309 c-40 -18 -43 -22 -27 -31 11 -5 46 -12 78 -15 l60 -6
-3 35 c-2 31 -5 34 -32 36 -17 1 -51 -8 -76 -19z"/>
<path d="M15293 17300 c-33 -13 -28 -27 13 -45 36 -15 38 -35 3 -35 -10 0 -19
-6 -19 -14 0 -32 -72 -35 -95 -3 -15 21 -22 22 -153 22 -107 0 -145 -4 -172
-17 -19 -9 -39 -13 -45 -10 -5 4 -32 6 -60 6 -27 -1 -83 -2 -123 -3 -72 -1
-74 -2 -85 -31 -6 -16 -15 -30 -20 -30 -5 0 -5 -9 -2 -20 3 -11 3 -29 0 -40
-6 -19 -15 -20 -168 -20 -119 -1 -167 -4 -180 -14 -12 -9 -38 -12 -87 -8 -54
4 -74 1 -88 -10 -9 -9 -41 -22 -71 -29 -29 -7 -56 -19 -58 -26 -7 -18 -53 -17
-53 1 0 7 9 16 20 19 35 9 24 30 -12 23 -140 -26 -148 -31 -124 -68 9 -14 13
-28 9 -31 -8 -9 -146 -9 -167 -1 -9 3 -14 10 -11 14 16 26 -90 64 -147 53 -39
-8 -35 -23 6 -23 42 0 69 -24 60 -54 -8 -28 -8 -27 0 -58 10 -33 11 -33 35 -9
17 17 31 19 96 16 42 -2 79 -6 83 -10 14 -13 -26 -25 -90 -25 -36 0 -73 -3
-82 -6 -25 -10 -19 -33 10 -40 43 -11 175 4 195 22 12 11 50 20 106 25 48 5
102 15 118 23 17 8 57 17 90 21 129 13 132 15 145 46 13 29 51 41 65 19 10
-16 136 -12 155 5 10 9 54 17 128 23 79 6 117 14 130 25 11 10 46 18 94 23 63
5 79 10 83 25 4 11 14 19 23 19 149 3 213 10 237 26 19 12 55 18 127 22 81 4
105 9 119 23 13 13 34 19 68 19 66 0 111 10 111 25 0 13 63 25 129 25 43 0 70
13 51 25 -7 4 -45 11 -84 16 -76 8 -197 44 -207 61 -9 14 -80 19 -106 8z m119
-102 c-9 -9 -15 -9 -24 0 -9 9 -7 12 12 12 19 0 21 -3 12 -12z m-337 -38 l40
-7 -30 -12 c-38 -16 -142 -32 -161 -24 -15 5 -19 44 -7 57 7 7 79 1 158 -14z
m-657 -126 c26 -7 30 -24 5 -24 -24 0 -83 -23 -83 -32 0 -4 -9 -8 -19 -8 -13
0 -21 8 -23 23 -5 35 59 57 120 41z m-243 -54 c3 -5 2 -17 -3 -26 -8 -14 -10
-14 -21 0 -13 15 -8 36 9 36 5 0 12 -4 15 -10z m-157 -57 c-15 -2 -42 -2 -60
0 -18 2 -6 4 27 4 33 0 48 -2 33 -4z"/>
<path d="M14927 17294 c-15 -15 7 -24 58 -24 64 0 93 9 73 21 -15 10 -122 12
-131 3z"/>
<path d="M17526 17292 c-2 -4 -1 -77 4 -162 5 -85 10 -866 11 -1735 2 -1375 4
-1496 10 -935 11 890 15 1116 22 1126 6 11 10 958 5 1374 -2 241 -6 299 -18
318 -16 23 -26 27 -34 14z"/>
<path d="M13215 17010 c28 -12 85 -12 85 0 0 6 -24 10 -52 9 -39 0 -48 -3 -33
-9z"/>
<path d="M13220 16876 c0 -8 5 -18 12 -22 15 -10 91 -6 123 6 44 17 18 30 -61
30 -58 0 -74 -3 -74 -14z"/>
<path d="M11806 16694 c-5 -12 -2 -15 10 -10 8 3 18 6 20 6 3 0 2 5 -1 10 -9
15 -22 12 -29 -6z"/>
<path d="M10693 16606 c-4 -8 -24 -16 -43 -19 -19 -2 24 -5 96 -5 95 -2 134 2
142 11 8 9 -7 11 -74 9 -53 -2 -90 1 -99 8 -10 8 -15 8 -22 -4z"/>
<path d="M18435 15200 c-7 -32 2 -350 10 -359 3 -2 5 84 5 192 0 108 -2 197
-4 197 -3 0 -7 -14 -11 -30z"/>
<path d="M17544 13580 c0 -113 2 -159 3 -102 2 56 2 148 0 205 -1 56 -3 10 -3
-103z"/>
<path d="M17070 10490 c0 -5 11 -10 24 -10 14 0 28 5 31 10 4 6 -7 10 -24 10
-17 0 -31 -4 -31 -10z"/>
<path d="M16929 10441 c12 -8 51 -4 51 5 0 2 -15 4 -32 4 -23 0 -29 -3 -19 -9z"/>
<path d="M16206 10311 c-47 -18 54 -31 123 -16 25 5 30 10 20 16 -17 11 -116
11 -143 0z"/>
<path d="M16020 10260 c0 -13 50 -13 70 0 11 7 4 10 -27 10 -24 0 -43 -4 -43
-10z"/>
<path d="M15595 10170 c-3 -6 1 -13 9 -16 21 -8 66 3 66 16 0 13 -67 13 -75 0z"/>
<path d="M15425 10120 c8 -13 65 -13 85 0 11 7 0 10 -38 10 -33 0 -51 -4 -47
-10z"/>
<path d="M15123 10043 c-18 -2 -33 -8 -33 -13 0 -15 28 -19 66 -8 28 7 34 12
23 19 -8 5 -16 8 -19 7 -3 -1 -20 -3 -37 -5z"/>
<path d="M14520 9755 c0 -8 4 -15 9 -15 5 0 11 7 15 15 3 9 0 15 -9 15 -8 0
-15 -7 -15 -15z"/>
<path d="M14456 9721 c-11 -4 -21 -17 -23 -29 -3 -21 -2 -21 28 -4 44 24 40
51 -5 33z"/>
<path d="M14387 9650 c-3 -12 -14 -20 -25 -20 -11 0 -22 -6 -25 -14 -3 -8 -16
-16 -29 -18 -13 -2 -28 -15 -36 -30 -7 -16 -18 -28 -25 -28 -20 0 -34 -14 -41
-40 l-7 -25 18 22 c10 12 36 28 58 35 25 8 48 25 63 48 13 19 32 38 43 42 10
4 19 17 19 28 0 26 -6 26 -13 0z"/>
<path d="M14155 9450 c-3 -5 1 -10 10 -10 9 0 13 5 10 10 -3 6 -8 10 -10 10
-2 0 -7 -4 -10 -10z"/>
<path d="M14088 9388 c-13 -18 -28 -40 -31 -48 -4 -8 -16 -28 -26 -45 -25 -38
-25 -45 -2 -45 20 0 43 29 56 70 4 14 19 35 32 48 24 22 27 42 6 49 -5 2 -21
-11 -35 -29z"/>
<path d="M13984 9244 c-4 -10 -9 -22 -11 -26 -2 -5 0 -8 5 -8 10 0 24 41 17
48 -3 3 -8 -4 -11 -14z"/>
<path d="M13928 9174 c-10 -17 -24 -34 -33 -37 -8 -4 -15 -16 -15 -28 0 -12
-12 -32 -26 -46 -26 -24 -29 -58 -4 -58 7 0 18 15 22 33 5 17 13 32 18 32 16
0 62 88 58 112 -3 22 -4 21 -20 -8z"/>
<path d="M13786 8895 c-3 -8 -12 -15 -20 -15 -14 0 -28 -66 -18 -84 7 -12 31
35 32 62 0 12 7 25 15 28 16 7 21 24 6 24 -5 0 -11 -7 -15 -15z"/>
<path d="M13707 8741 c-7 -33 2 -73 14 -65 12 7 12 94 0 94 -5 0 -11 -13 -14
-29z"/>
<path d="M13655 8563 c-5 -48 -15 -90 -26 -109 -18 -30 -19 -52 -17 -355 3
-280 5 -324 18 -324 15 0 18 68 11 265 -4 112 9 332 21 354 9 16 46 205 48
239 0 4 -11 7 -24 7 -23 0 -25 -4 -31 -77z"/>
<path d="M13740 7886 c0 -8 5 -18 10 -21 6 -3 10 3 10 14 0 12 -4 21 -10 21
-5 0 -10 -6 -10 -14z"/>
<path d="M18215 7597 c-4 -10 -5 -21 -1 -24 10 -10 18 4 13 24 -4 17 -4 17
-12 0z"/>
<path d="M13700 7513 c0 -56 13 -84 31 -66 9 9 8 24 -1 62 -15 64 -30 66 -30
4z"/>
<path d="M18167 7534 c-3 -3 -3 -13 0 -21 5 -12 7 -12 14 -1 15 23 4 40 -14
22z"/>
<path d="M13751 7379 c-1 -25 4 -39 14 -43 8 -3 15 -14 15 -24 0 -10 6 -27 14
-37 13 -18 14 -18 25 3 15 28 -2 70 -33 82 -14 5 -26 19 -29 32 -3 15 -5 11
-6 -13z"/>
<path d="M13840 7170 c0 -5 5 -10 10 -10 6 0 10 5 10 10 0 6 -4 10 -10 10 -5
0 -10 -4 -10 -10z"/>
<path d="M17900 7161 c0 -4 11 -6 25 -3 14 2 25 6 25 8 0 2 -11 4 -25 4 -14 0
-25 -4 -25 -9z"/>
<path d="M13884 7114 c3 -9 6 -22 6 -30 0 -8 6 -14 14 -14 8 0 19 -13 25 -30
5 -16 14 -30 19 -30 5 0 14 -11 20 -25 6 -14 18 -25 26 -25 7 0 17 -11 20 -25
4 -14 13 -25 21 -25 22 0 19 47 -4 60 -11 5 -23 20 -27 32 -4 13 -19 34 -33
49 -14 14 -34 38 -44 52 -20 30 -53 38 -43 11z"/>
<path d="M17845 7080 c-8 -13 4 -32 16 -25 12 8 12 35 0 35 -6 0 -13 -4 -16
-10z"/>
<path d="M14070 6855 c0 -8 7 -15 16 -15 14 0 14 3 4 15 -7 8 -14 15 -16 15
-2 0 -4 -7 -4 -15z"/>
<path d="M14114 6819 c-8 -14 5 -29 27 -29 10 0 19 6 19 14 0 16 -37 28 -46
15z"/>
<path d="M14160 6765 c0 -8 7 -15 16 -15 14 0 14 3 4 15 -7 8 -14 15 -16 15
-2 0 -4 -7 -4 -15z"/>
<path d="M17528 6753 c7 -3 16 -2 19 1 4 3 -2 6 -13 5 -11 0 -14 -3 -6 -6z"/>
<path d="M14280 6674 c0 -20 54 -74 74 -74 9 0 16 -6 16 -14 0 -8 8 -17 18
-20 9 -2 27 -7 40 -11 38 -11 26 22 -13 36 -19 7 -35 16 -35 20 0 4 -15 24
-34 43 -35 38 -66 47 -66 20z"/>
<path d="M17240 6584 l-25 -13 33 -1 c17 0 32 4 32 9 0 18 -15 19 -40 5z"/>
<path d="M14512 6494 c1 -9 9 -19 16 -22 9 -3 13 2 10 14 -1 9 -9 19 -16 22
-9 3 -13 -2 -10 -14z"/>
<path d="M14571 6446 c-9 -11 -5 -15 20 -20 72 -14 110 3 53 24 -35 14 -60 12
-73 -4z"/>
<path d="M16910 6447 c-24 -11 -23 -11 19 -15 47 -4 64 4 41 18 -19 12 -29 12
-60 -3z"/>
<path d="M14785 6363 c-43 -9 -51 -15 -30 -23 31 -13 97 -12 93 2 -5 15 -38
25 -63 21z"/>
<path d="M16590 6350 c-17 -5 1 -8 55 -8 54 0 72 3 55 8 -14 4 -38 8 -55 8
-16 0 -41 -4 -55 -8z"/>
<path d="M14860 6306 c0 -16 25 -24 53 -18 28 7 14 27 -21 30 -23 2 -32 -1
-32 -12z"/>
<path d="M16380 6300 c0 -5 22 -10 49 -10 28 0 53 5 56 10 4 6 -15 10 -49 10
-31 0 -56 -4 -56 -10z"/>
<path d="M15035 6260 c-13 -6 7 -9 60 -9 53 0 73 3 60 9 -11 5 -38 9 -60 9
-22 0 -49 -4 -60 -9z"/>
<path d="M15235 6220 c-36 -13 41 -20 214 -19 117 0 157 3 136 10 -37 11 -323
19 -350 9z"/>
<path d="M15635 6210 c-8 -13 135 -13 155 0 10 7 -10 10 -67 10 -45 0 -85 -4
-88 -10z"/>
</g>
</svg>
