<?xml version="1.0" standalone="no"?>
<!DOCTYPE svg PUBLIC "-//W3C//DTD SVG 20010904//EN"
 "http://www.w3.org/TR/2001/REC-SVG-20010904/DTD/svg10.dtd">
<svg version="1.0" xmlns="http://www.w3.org/2000/svg"
 width="2560.000000pt" height="2560.000000pt" viewBox="0 0 2560.000000 2560.000000"
 preserveAspectRatio="xMidYMid meet">

<g transform="translate(0.000000,2560.000000) scale(0.100000,-0.100000)"
fill="#000000" stroke="none">
<path d="M12285 25394 c-1995 -74 -3905 -596 -5626 -1537 -1364 -747 -2582
-1742 -3580 -2927 -1658 -1968 -2663 -4395 -2883 -6960 -32 -368 -40 -588 -40
-1050 0 -897 71 -1616 245 -2475 535 -2650 1946 -5085 3984 -6876 1180 -1037
2556 -1852 4025 -2382 1058 -382 2117 -613 3260 -711 646 -56 1422 -56 2070 0
1921 165 3699 727 5345 1689 1683 984 3127 2365 4182 4000 1076 1667 1736
3549 1932 5515 71 707 80 1501 26 2200 -111 1415 -458 2782 -1041 4101 -98
221 -343 711 -469 939 -469 847 -982 1569 -1649 2320 -152 171 -750 769 -921
921 -401 357 -775 655 -1165 931 -1745 1232 -3742 1989 -5895 2232 -399 46
-771 66 -1260 70 -247 2 -490 2 -540 0z m6520 -2893 c21 -12 30 -25 29 -42 -2
-67 -47 -358 -60 -382 -8 -16 -14 -47 -14 -70 0 -38 -27 -196 -66 -392 -7 -38
-19 -99 -25 -135 -5 -36 -15 -90 -20 -120 -34 -193 -40 -233 -46 -300 -3 -41
-12 -84 -18 -95 -7 -11 -16 -54 -19 -95 -10 -111 -26 -219 -41 -275 -12 -45
-34 -176 -51 -310 -4 -27 -12 -57 -19 -65 -8 -8 -17 -44 -20 -80 -4 -36 -16
-114 -27 -175 -59 -329 -67 -383 -68 -415 0 -19 -9 -50 -20 -68 -14 -22 -20
-51 -20 -90 -1 -31 -10 -102 -20 -157 -26 -133 -59 -323 -70 -410 -5 -38 -18
-117 -28 -175 -11 -58 -25 -136 -32 -175 -6 -38 -18 -83 -26 -100 -7 -16 -18
-70 -24 -120 -5 -49 -17 -128 -26 -175 -33 -174 -44 -237 -54 -325 -6 -49 -17
-106 -25 -125 -7 -19 -17 -68 -20 -108 -3 -40 -13 -92 -22 -115 -18 -48 -30
-116 -41 -237 -5 -47 -12 -92 -16 -99 -5 -7 -14 -50 -21 -95 -8 -44 -18 -108
-24 -141 -20 -120 -31 -205 -31 -242 0 -21 -9 -53 -20 -71 -13 -21 -20 -50
-20 -85 0 -28 -6 -75 -14 -104 -8 -29 -20 -101 -26 -160 -7 -59 -19 -139 -27
-178 -8 -38 -18 -98 -24 -133 -5 -35 -13 -71 -18 -80 -5 -9 -12 -44 -16 -77
-11 -106 -37 -269 -45 -290 -9 -24 -33 -158 -60 -340 -10 -71 -28 -168 -39
-215 -12 -47 -21 -98 -21 -114 0 -15 -7 -49 -15 -75 -8 -25 -24 -115 -35 -199
-11 -85 -24 -161 -29 -170 -5 -10 -18 -87 -30 -172 -12 -85 -27 -168 -33 -185
-5 -16 -16 -66 -23 -110 -7 -44 -20 -109 -28 -145 -16 -67 -20 -91 -37 -225
-5 -44 -14 -104 -20 -134 -5 -29 -10 -68 -10 -86 0 -18 -8 -43 -18 -56 -14
-18 -23 -64 -36 -178 -9 -85 -22 -163 -28 -175 -7 -12 -18 -66 -24 -121 -7
-55 -27 -188 -44 -295 -18 -107 -35 -222 -39 -255 -4 -33 -15 -74 -24 -92 -9
-18 -17 -51 -18 -75 0 -39 -7 -90 -52 -359 -8 -47 -19 -101 -25 -120 -6 -19
-16 -65 -21 -104 -13 -97 -45 -271 -70 -385 -11 -52 -25 -133 -30 -180 -6 -47
-15 -101 -21 -120 -5 -19 -10 -50 -10 -68 0 -18 -6 -45 -14 -60 -8 -15 -19
-67 -25 -117 -6 -49 -18 -128 -27 -175 -8 -47 -21 -123 -28 -170 -7 -47 -18
-105 -24 -130 -5 -25 -18 -90 -27 -145 -9 -55 -23 -136 -31 -180 -8 -44 -18
-105 -23 -135 -5 -30 -19 -107 -31 -170 -12 -63 -35 -187 -51 -275 -17 -88
-35 -191 -40 -230 -6 -38 -22 -128 -35 -200 -14 -71 -28 -161 -31 -200 -3 -38
-11 -81 -18 -95 -7 -14 -15 -56 -19 -95 -10 -113 -26 -216 -41 -270 -18 -64
-55 -280 -55 -323 0 -18 -6 -43 -14 -55 -8 -12 -17 -49 -21 -82 -10 -91 -42
-266 -54 -298 -6 -16 -11 -42 -11 -58 0 -49 -50 -261 -71 -300 -12 -23 -19
-57 -19 -89 0 -32 -9 -70 -23 -103 -13 -29 -29 -74 -36 -102 -7 -27 -21 -68
-31 -90 -11 -22 -32 -80 -48 -130 -45 -137 -72 -207 -90 -235 -9 -14 -27 -56
-40 -94 -20 -60 -51 -119 -72 -136 -4 -3 -13 -31 -22 -62 -9 -31 -26 -67 -37
-79 -12 -13 -21 -28 -21 -35 0 -16 -47 -104 -94 -177 -20 -32 -46 -78 -57
-102 -11 -24 -29 -47 -40 -50 -10 -4 -27 -25 -37 -48 -11 -23 -29 -51 -41 -61
-12 -11 -30 -38 -40 -60 -10 -23 -32 -56 -50 -75 -18 -19 -39 -48 -48 -65 -8
-17 -30 -47 -49 -66 -43 -45 -111 -127 -130 -155 -8 -12 -30 -30 -49 -41 -19
-10 -40 -31 -46 -46 -6 -16 -39 -53 -73 -83 -33 -31 -65 -60 -71 -66 -109
-113 -168 -169 -179 -169 -7 0 -31 -17 -54 -37 -86 -80 -150 -132 -174 -143
-13 -7 -33 -25 -42 -41 -11 -18 -40 -41 -73 -57 -31 -15 -68 -39 -84 -54 -15
-16 -36 -28 -46 -28 -11 0 -30 -12 -44 -26 -13 -14 -57 -45 -97 -70 -40 -24
-83 -53 -94 -64 -12 -11 -29 -20 -39 -20 -25 0 -79 -25 -124 -57 -22 -16 -56
-35 -75 -43 -19 -8 -62 -28 -95 -46 -33 -18 -71 -35 -85 -39 -14 -4 -32 -13
-40 -20 -16 -13 -108 -53 -198 -85 -29 -11 -65 -26 -80 -34 -58 -32 -119 -54
-170 -61 -32 -4 -74 -20 -108 -40 -33 -20 -75 -36 -107 -40 -29 -4 -65 -13
-81 -21 -16 -8 -37 -14 -46 -14 -9 0 -59 -14 -110 -30 -51 -17 -111 -30 -133
-30 -22 0 -54 -8 -71 -19 -17 -10 -53 -22 -81 -26 -27 -3 -76 -13 -108 -21
-61 -16 -137 -28 -272 -44 -44 -5 -136 -17 -205 -26 -115 -17 -315 -19 -2520
-25 -1317 -4 -2418 -10 -2445 -14 -46 -6 -53 -4 -77 20 -44 44 -51 82 -34 169
9 41 16 90 16 107 0 18 4 46 10 63 20 66 60 267 60 306 0 24 8 52 19 68 13 19
21 52 25 107 3 44 12 104 20 134 8 29 20 106 27 170 6 64 18 136 27 161 8 25
18 70 22 100 15 104 60 375 74 445 17 82 65 366 76 445 11 90 41 243 52 275 6
17 14 61 19 99 8 67 21 94 63 125 17 13 277 15 1965 13 1071 -1 2182 2 2471 7
493 8 529 10 590 30 36 12 89 24 118 27 30 4 70 15 90 25 20 11 42 19 50 19 8
0 26 8 40 18 15 10 45 24 67 31 22 8 55 26 72 42 18 15 51 33 72 40 29 8 48
23 66 50 14 22 30 39 35 39 15 0 142 117 163 151 11 17 30 35 43 39 13 5 31
28 43 55 11 25 27 48 36 51 9 4 27 27 40 53 13 25 37 61 53 80 16 18 35 51 42
74 6 22 21 48 32 57 12 9 27 41 35 70 7 30 29 88 48 131 19 42 38 92 41 110 4
19 12 43 18 54 6 11 16 54 23 95 18 116 51 260 61 273 5 7 12 50 16 97 3 47
15 114 26 148 11 35 20 78 20 95 1 18 7 68 16 112 8 44 21 127 30 185 9 58 21
110 26 117 9 11 31 193 31 255 0 15 -5 39 -12 55 l-11 28 -1313 -3 c-1124 -3
-1350 -1 -1576 13 -146 9 -283 20 -305 25 -23 5 -81 16 -131 25 -49 9 -106 20
-125 25 -19 5 -71 15 -115 23 -103 19 -198 45 -255 68 -25 10 -63 21 -85 24
-22 4 -66 18 -97 31 -32 13 -83 31 -114 39 -30 8 -69 26 -85 40 -17 14 -40 25
-52 25 -12 0 -37 9 -55 20 -17 11 -53 25 -80 31 -26 6 -58 19 -72 27 -14 9
-93 50 -177 93 -84 42 -174 93 -201 113 -28 20 -54 36 -59 36 -6 0 -18 9 -29
21 -10 11 -32 27 -49 34 -16 7 -48 30 -70 50 -22 21 -63 53 -91 71 -28 18 -66
51 -83 73 -18 22 -41 43 -52 46 -10 4 -28 24 -39 46 -11 21 -26 39 -33 39 -19
0 -237 240 -237 261 0 5 -22 33 -49 62 -31 35 -51 67 -55 91 -5 26 -14 40 -31
46 -16 6 -38 38 -71 107 -27 54 -63 124 -81 155 -18 31 -33 63 -33 71 0 9 -11
29 -25 45 -14 17 -25 37 -25 46 0 18 -52 173 -69 205 -7 12 -20 65 -31 119
-10 53 -28 127 -39 164 -11 37 -23 93 -26 125 -4 32 -11 65 -16 74 -15 30 -43
370 -47 574 -4 222 18 564 49 785 11 74 24 169 30 210 5 41 16 92 24 113 8 20
21 99 29 175 8 75 22 164 30 197 9 32 16 74 16 92 0 18 6 52 14 75 8 24 17 68
21 98 4 30 15 105 26 165 11 61 24 137 30 170 5 33 16 92 24 130 8 39 16 93
19 120 5 62 38 248 85 480 5 28 17 109 27 180 9 72 20 135 24 140 5 6 11 37
15 70 4 33 13 85 21 115 19 74 74 388 84 475 4 39 12 84 18 100 6 17 16 66 22
110 27 188 37 244 47 257 6 7 16 60 23 118 6 58 15 132 19 165 4 33 12 69 18
80 6 11 14 51 18 90 4 38 11 79 16 92 5 13 18 81 29 151 11 70 30 185 41 256
12 72 28 136 35 144 8 8 14 35 14 65 1 29 8 88 16 132 28 147 62 360 73 468 5
43 14 84 20 90 6 6 11 24 11 40 0 57 41 292 55 319 8 14 15 43 15 65 1 21 5
56 10 78 5 22 18 82 29 133 11 51 24 99 29 105 5 7 15 50 22 97 6 46 27 125
47 175 19 49 41 121 49 159 7 37 18 74 24 80 15 20 60 144 60 169 0 13 9 33
21 46 12 12 27 44 34 70 11 44 89 225 121 281 7 14 23 43 33 65 11 23 29 51
40 64 11 13 27 48 36 78 9 30 27 67 41 82 13 14 29 43 35 63 5 21 18 42 28 47
9 6 30 34 45 63 39 75 126 202 185 273 28 32 51 65 51 72 0 6 25 38 56 70 31
32 68 74 82 93 14 19 44 53 66 76 23 22 49 53 59 68 10 15 31 29 47 33 22 4
31 13 35 35 4 17 20 37 39 50 17 11 42 35 55 52 14 18 43 46 66 64 23 18 69
59 102 92 33 32 72 62 87 66 17 4 33 19 43 38 8 17 33 43 56 58 98 64 157 105
199 141 25 20 50 37 55 37 6 0 40 22 76 49 37 27 79 52 94 56 15 3 42 20 61
37 19 16 67 44 106 62 39 18 77 40 84 49 8 9 29 21 48 27 19 7 67 30 107 51
39 22 99 49 132 60 32 12 77 31 100 44 22 12 65 31 95 40 30 10 62 24 71 31
19 17 125 54 154 54 11 0 25 4 31 9 18 18 191 79 269 95 44 9 88 22 100 30 11
7 88 27 170 45 83 17 173 38 200 46 101 29 185 45 272 51 48 4 97 12 108 19
11 6 90 17 175 24 85 7 164 15 175 19 21 7 5606 20 5660 13 17 -2 44 -11 60
-20z"/>
<path d="M12678 19710 c-36 -5 -101 -15 -143 -24 -43 -9 -93 -16 -112 -16 -19
0 -51 -9 -71 -19 -20 -11 -86 -40 -147 -66 -60 -26 -117 -53 -125 -60 -8 -7
-40 -23 -70 -35 -30 -13 -73 -41 -95 -62 -155 -151 -250 -238 -260 -238 -7 0
-17 -18 -24 -40 -6 -22 -21 -44 -31 -50 -11 -6 -20 -16 -20 -23 0 -7 -23 -44
-51 -82 -29 -39 -72 -112 -96 -163 -25 -51 -51 -96 -58 -98 -8 -3 -16 -24 -20
-47 -10 -64 -25 -108 -53 -157 -25 -43 -40 -101 -61 -235 -5 -33 -12 -67 -15
-75 -4 -9 -13 -61 -21 -115 -30 -206 -46 -303 -64 -395 -11 -52 -25 -129 -30
-170 -6 -41 -17 -119 -24 -173 -9 -60 -20 -104 -30 -115 -10 -10 -17 -32 -17
-47 0 -64 -32 -282 -45 -313 -8 -18 -15 -54 -15 -80 -1 -49 -31 -248 -49 -317
-19 -72 -60 -297 -86 -475 -15 -96 -31 -193 -36 -215 -6 -22 -14 -71 -19 -108
-5 -38 -13 -83 -19 -100 -5 -18 -15 -65 -21 -106 -6 -40 -15 -82 -20 -92 -6
-10 -10 -33 -10 -51 0 -33 -29 -203 -69 -408 -22 -112 -49 -262 -57 -320 -14
-105 -48 -279 -59 -305 -7 -16 -16 -65 -19 -107 -4 -42 -13 -99 -22 -127 -8
-27 -21 -96 -29 -153 -7 -57 -21 -157 -30 -223 -10 -66 -23 -133 -30 -150 -7
-16 -16 -57 -19 -90 -13 -118 -34 -261 -44 -290 -6 -16 -20 -88 -31 -160 -11
-71 -23 -146 -27 -165 -14 -77 -14 -357 -1 -460 14 -107 48 -245 72 -290 56
-105 100 -172 124 -189 16 -11 34 -34 41 -50 8 -21 23 -34 47 -42 19 -6 52
-28 72 -48 20 -20 83 -60 141 -89 58 -29 112 -57 120 -62 24 -14 204 -59 274
-69 35 -5 73 -14 85 -20 15 -8 412 -11 1430 -9 1238 3 1412 5 1424 18 14 15
47 162 47 210 0 14 9 52 19 85 10 33 22 101 26 150 4 50 13 97 20 105 6 8 17
65 24 125 6 61 18 139 26 175 9 36 20 101 25 145 11 94 28 202 42 265 5 25 13
68 17 95 5 28 16 100 25 160 10 61 24 126 31 145 7 19 16 67 19 105 3 39 16
113 27 165 12 52 25 125 29 161 13 103 43 274 74 424 8 39 18 99 22 135 3 36
13 80 20 99 8 18 19 72 24 120 5 47 17 129 26 181 8 52 19 120 23 150 10 69
39 222 53 275 5 22 14 74 19 115 4 41 18 122 29 180 40 204 59 316 66 385 4
39 12 79 19 90 7 11 17 58 24 104 6 46 17 107 25 135 21 74 36 166 36 218 0
24 7 67 15 94 9 27 20 78 25 114 52 338 67 428 78 447 6 12 12 39 12 59 0 35
29 214 51 312 5 23 9 59 9 80 0 20 7 72 15 115 8 43 15 92 15 109 0 16 6 44
14 61 8 18 21 82 30 142 9 61 21 137 27 170 5 33 17 98 24 144 8 47 19 98 25
115 6 17 18 90 26 161 7 72 21 173 30 225 17 103 14 184 -11 292 -8 35 -18 97
-21 137 -5 49 -13 78 -24 90 -10 9 -34 48 -53 86 -20 39 -65 102 -100 141 -35
39 -73 85 -85 101 -14 20 -34 33 -56 37 -24 5 -40 16 -54 39 -16 26 -35 38
-113 66 -52 19 -111 43 -133 54 -55 27 -120 42 -282 66 -135 20 -179 21 -905
20 -420 -1 -794 -5 -831 -9z"/>
</g>
</svg>
