<?xml version="1.0" standalone="no"?>
<!DOCTYPE svg PUBLIC "-//W3C//DTD SVG 20010904//EN"
 "http://www.w3.org/TR/2001/REC-SVG-20010904/DTD/svg10.dtd">
<svg version="1.0" xmlns="http://www.w3.org/2000/svg"
 width="2560.000000pt" height="2560.000000pt" viewBox="0 0 2560.000000 2560.000000"
 preserveAspectRatio="xMidYMid meet">

<g transform="translate(0.000000,2560.000000) scale(0.100000,-0.100000)"
fill="#000000" stroke="none">
<path d="M6660 24813 c-41 -1 -118 -7 -170 -13 -52 -5 -177 -15 -277 -20 -121
-7 -218 -18 -290 -34 -59 -13 -143 -27 -185 -30 -43 -4 -97 -14 -120 -22 -24
-9 -92 -24 -152 -34 -59 -11 -114 -24 -120 -29 -7 -6 -48 -18 -92 -26 -43 -9
-99 -25 -124 -35 -25 -11 -71 -24 -104 -30 -32 -5 -72 -18 -90 -29 -17 -10
-56 -24 -86 -30 -30 -7 -64 -18 -76 -26 -12 -7 -48 -21 -80 -31 -32 -9 -68
-23 -80 -30 -11 -8 -45 -21 -75 -30 -30 -9 -61 -22 -70 -30 -8 -8 -36 -20 -62
-28 -25 -7 -58 -22 -74 -33 -15 -11 -41 -23 -58 -27 -16 -4 -46 -17 -65 -30
-19 -13 -52 -28 -72 -35 -20 -7 -42 -18 -48 -26 -6 -8 -28 -19 -47 -26 -20 -6
-51 -22 -71 -35 -19 -13 -40 -24 -47 -24 -7 0 -29 -13 -50 -30 -21 -16 -43
-30 -49 -30 -7 0 -36 -15 -66 -34 -30 -19 -75 -47 -100 -62 -25 -15 -56 -34
-69 -43 -64 -44 -102 -69 -149 -99 -29 -19 -52 -38 -52 -43 0 -5 -5 -9 -11 -9
-16 0 -138 -87 -205 -147 -13 -13 -33 -27 -43 -32 -10 -6 -38 -26 -62 -46 -24
-20 -57 -46 -72 -58 -15 -12 -43 -35 -61 -52 -18 -16 -75 -68 -127 -115 -118
-106 -373 -362 -459 -459 -36 -41 -78 -89 -95 -107 -66 -73 -105 -121 -174
-215 -22 -30 -49 -65 -61 -79 -34 -40 -100 -133 -100 -141 0 -5 -11 -20 -25
-35 -14 -15 -31 -37 -38 -49 -31 -54 -54 -90 -79 -122 -16 -20 -28 -41 -28
-48 0 -7 -7 -18 -16 -26 -8 -7 -27 -33 -40 -58 -14 -25 -40 -71 -59 -101 -19
-30 -44 -75 -56 -100 -12 -25 -30 -56 -39 -70 -10 -14 -21 -36 -25 -50 -4 -14
-18 -39 -31 -57 -13 -17 -24 -36 -24 -41 0 -5 -16 -39 -35 -75 -19 -36 -35
-71 -35 -77 0 -7 -8 -24 -19 -38 -10 -15 -22 -38 -25 -52 -4 -14 -20 -52 -36
-85 -36 -78 -69 -159 -87 -215 -8 -25 -25 -70 -38 -100 -13 -30 -27 -71 -31
-90 -3 -19 -15 -52 -25 -72 -11 -21 -26 -68 -35 -104 -8 -37 -21 -79 -29 -94
-7 -14 -19 -54 -25 -89 -6 -35 -20 -85 -30 -111 -10 -26 -24 -84 -30 -128 -6
-45 -20 -107 -31 -139 -11 -32 -24 -100 -29 -152 -6 -51 -16 -119 -24 -150
-17 -66 -33 -197 -41 -336 -4 -55 -13 -164 -21 -242 -12 -122 -14 -1048 -14
-6380 0 -3811 4 -6263 10 -6303 5 -36 16 -164 25 -284 9 -121 25 -259 35 -308
11 -49 24 -128 29 -176 5 -48 18 -115 29 -147 11 -33 26 -98 32 -144 6 -47 17
-96 25 -110 7 -14 21 -62 30 -106 10 -44 24 -92 32 -108 7 -15 19 -53 24 -84
6 -32 19 -74 29 -93 10 -20 25 -63 34 -96 8 -32 24 -77 34 -99 11 -22 23 -55
27 -74 4 -19 18 -54 31 -79 13 -25 24 -52 24 -61 0 -9 14 -45 31 -81 38 -80
82 -173 103 -220 8 -19 22 -46 29 -60 8 -14 23 -43 33 -64 34 -71 54 -111 64
-126 6 -8 22 -38 36 -67 14 -29 32 -57 40 -64 8 -6 14 -17 14 -23 0 -6 15 -35
32 -63 18 -28 41 -64 50 -80 10 -15 31 -48 48 -73 16 -25 41 -65 55 -90 14
-25 39 -63 56 -85 16 -22 45 -62 64 -90 39 -57 82 -115 208 -279 32 -41 97
-118 116 -137 9 -9 43 -47 76 -85 108 -124 278 -300 370 -384 50 -46 112 -103
140 -129 42 -39 126 -111 234 -202 13 -11 37 -27 52 -35 16 -8 29 -18 29 -22
0 -4 25 -25 56 -47 31 -22 71 -52 88 -66 17 -14 45 -33 61 -42 17 -8 39 -24
49 -36 11 -12 23 -21 29 -21 5 0 24 -12 42 -28 18 -15 56 -40 84 -57 29 -16
68 -42 88 -57 20 -16 41 -28 48 -28 7 0 30 -12 51 -28 21 -15 55 -35 74 -45
19 -10 58 -32 85 -48 28 -16 77 -43 110 -59 33 -17 101 -51 150 -76 130 -66
206 -102 235 -110 14 -4 37 -15 51 -25 14 -10 38 -21 55 -24 16 -4 56 -19 89
-35 57 -26 107 -45 205 -77 25 -8 68 -23 95 -35 28 -11 76 -26 109 -34 32 -7
79 -22 105 -32 25 -11 75 -26 111 -32 35 -6 76 -18 91 -26 15 -7 71 -21 125
-29 53 -9 113 -23 133 -31 19 -8 87 -21 151 -30 63 -8 141 -22 174 -30 32 -8
140 -22 240 -30 99 -7 242 -21 316 -29 121 -14 789 -16 6415 -12 4713 3 6297
7 6350 15 39 7 156 19 262 27 105 8 220 21 255 29 35 8 118 22 183 31 66 9
145 24 175 35 30 10 91 23 135 30 44 7 96 18 115 26 18 8 68 22 109 30 41 9
91 24 111 33 19 10 55 21 79 25 24 4 67 17 95 31 28 13 69 27 91 31 22 4 56
14 75 24 19 9 60 25 90 35 30 10 62 23 70 30 8 6 35 17 60 24 25 7 63 23 85
35 22 13 53 26 69 30 17 4 41 15 55 25 14 10 49 26 78 35 28 9 57 23 63 31 6
8 28 19 48 26 20 6 44 17 52 24 8 7 40 25 70 39 30 14 80 40 110 57 30 17 69
39 85 48 17 9 48 29 70 44 22 15 45 27 51 27 6 0 27 12 47 28 20 15 59 41 87
57 28 17 66 41 85 55 18 14 56 41 84 60 81 56 154 109 177 128 12 9 45 35 74
57 83 63 189 151 258 213 35 31 94 84 130 117 90 80 282 273 362 363 36 40 79
88 95 105 40 44 117 133 157 183 67 85 93 119 111 144 9 14 31 43 47 65 17 22
46 63 65 90 19 28 54 79 79 115 26 36 46 70 46 75 0 6 12 21 25 34 14 13 25
28 25 33 0 5 13 28 29 51 40 59 68 106 89 152 11 22 26 46 35 53 9 8 21 30 28
50 6 20 17 44 25 52 7 8 22 35 33 60 11 25 27 56 35 70 9 14 22 41 31 60 8 19
22 46 29 60 28 49 86 177 86 189 0 7 11 31 24 54 13 23 30 62 36 87 7 25 18
52 25 60 7 8 20 40 29 70 8 30 24 73 36 95 11 21 20 50 20 63 0 13 13 54 29
90 16 37 32 87 36 112 4 25 16 61 26 81 10 20 23 67 30 105 6 38 18 85 26 104
8 19 23 84 34 144 11 60 24 117 30 128 5 10 17 69 25 131 8 62 23 155 34 207
10 52 24 172 30 265 5 94 16 217 23 275 18 154 18 12598 0 12745 -7 55 -18
172 -23 260 -6 88 -18 189 -26 225 -8 36 -24 128 -34 204 -11 76 -24 144 -29
150 -6 7 -19 65 -31 130 -11 65 -27 130 -34 145 -7 14 -19 57 -25 95 -7 38
-20 85 -30 105 -10 20 -22 56 -26 81 -4 25 -18 70 -31 100 -13 30 -28 77 -34
105 -6 27 -19 63 -29 80 -10 16 -24 53 -31 80 -7 28 -19 57 -26 65 -6 8 -19
39 -28 68 -8 30 -24 68 -35 85 -10 18 -22 43 -25 57 -4 14 -21 54 -38 90 -45
94 -33 70 -200 390 -16 30 -44 80 -63 110 -19 30 -46 75 -60 100 -14 25 -38
63 -53 86 -15 22 -37 56 -49 75 -12 19 -31 48 -43 64 -30 44 -63 91 -117 170
-26 39 -57 80 -68 92 -11 11 -33 40 -50 62 -63 86 -129 169 -180 225 -16 18
-83 91 -147 162 -64 71 -176 185 -248 254 -177 169 -186 177 -259 240 -35 30
-76 66 -92 80 -15 14 -52 43 -83 65 -31 22 -69 51 -86 65 -89 74 -136 109
-192 140 -21 11 -38 24 -38 28 0 5 -18 18 -40 31 -22 12 -40 26 -40 30 0 5
-14 14 -30 21 -17 7 -43 22 -57 34 -36 29 -88 60 -150 92 -29 14 -53 30 -53
34 0 4 -19 15 -41 24 -23 9 -56 28 -74 41 -17 14 -36 25 -42 25 -6 0 -26 11
-45 24 -20 13 -51 29 -71 35 -19 7 -41 18 -47 26 -6 8 -28 19 -48 26 -20 7
-53 22 -72 35 -19 13 -48 26 -65 30 -16 4 -43 16 -58 27 -16 11 -49 26 -74 33
-26 8 -54 20 -62 28 -9 8 -39 21 -66 29 -28 8 -68 24 -90 36 -22 11 -48 21
-58 21 -11 0 -42 11 -70 25 -28 15 -73 31 -101 37 -28 6 -67 19 -88 29 -20 10
-58 23 -85 29 -26 6 -68 19 -93 30 -25 10 -77 24 -115 31 -39 6 -83 18 -98 26
-16 8 -80 23 -142 34 -62 10 -128 26 -147 34 -19 7 -70 17 -114 20 -43 4 -128
18 -188 31 -75 17 -169 27 -305 35 -108 6 -221 15 -251 22 -40 8 -1767 11
-6250 12 -3407 1 -6229 0 -6270 -2z m10776 -2523 c153 -6 342 -17 419 -25 77
-8 205 -17 285 -20 167 -7 293 -20 400 -41 41 -8 124 -20 185 -25 60 -5 139
-19 175 -30 36 -11 102 -24 147 -30 46 -5 104 -17 130 -27 27 -11 82 -24 123
-31 41 -7 85 -20 98 -28 13 -8 57 -21 99 -29 42 -8 90 -23 107 -33 17 -10 47
-22 66 -26 19 -4 49 -15 66 -25 17 -9 55 -25 85 -35 30 -10 61 -24 70 -31 9
-8 36 -21 62 -30 25 -8 51 -22 58 -30 6 -8 16 -14 21 -14 18 0 98 -41 98 -49
0 -5 17 -15 37 -22 21 -6 55 -25 77 -40 21 -16 43 -29 48 -29 4 0 27 -13 50
-30 22 -16 47 -30 54 -30 7 0 18 -9 23 -19 6 -10 23 -23 38 -29 16 -6 41 -22
57 -36 16 -14 32 -26 37 -26 4 0 27 -16 51 -35 71 -59 91 -74 138 -111 102
-79 220 -186 319 -288 130 -134 176 -184 208 -222 62 -77 99 -123 133 -168 19
-26 46 -59 59 -74 13 -15 27 -36 32 -47 5 -11 30 -47 54 -80 25 -33 54 -79 66
-102 11 -24 24 -43 29 -43 5 0 13 -15 20 -34 6 -18 19 -41 30 -51 11 -10 25
-34 31 -54 7 -20 22 -49 34 -66 13 -16 28 -47 34 -67 7 -20 19 -42 27 -49 8
-6 21 -35 30 -64 8 -30 21 -59 29 -65 8 -7 22 -35 30 -63 8 -28 22 -61 31 -75
8 -13 22 -48 30 -78 7 -30 21 -65 29 -78 8 -12 20 -49 26 -82 6 -32 21 -86 33
-119 13 -33 27 -84 30 -113 4 -30 15 -75 25 -100 10 -26 24 -90 31 -142 7 -52
20 -122 30 -155 10 -33 24 -114 30 -180 7 -66 20 -163 30 -215 10 -52 21 -158
25 -235 3 -77 13 -230 21 -340 9 -110 20 -267 26 -350 6 -96 12 -1532 15
-3994 4 -3824 4 -3901 -26 -3901 -10 0 -95 44 -121 63 -67 48 -98 68 -135 87
-22 11 -65 36 -95 55 -30 19 -80 46 -110 60 -30 14 -61 32 -70 39 -8 8 -34 19
-56 25 -23 6 -47 18 -54 26 -6 7 -35 22 -63 31 -29 9 -63 25 -77 35 -14 10
-45 23 -70 29 -25 7 -52 19 -62 27 -9 8 -42 21 -75 29 -32 9 -68 22 -80 30
-12 8 -46 19 -75 25 -70 15 -84 23 -102 60 -14 29 -16 325 -16 3073 0 3430
-10 4137 -59 4401 -5 28 -12 86 -15 130 -15 188 -29 294 -46 360 -10 39 -21
105 -25 149 -4 43 -17 108 -29 145 -13 36 -26 93 -30 126 -4 33 -16 78 -25
100 -10 23 -23 65 -30 95 -7 30 -23 78 -36 105 -13 28 -29 69 -36 93 -7 23
-18 47 -25 53 -7 6 -16 25 -19 42 -6 30 -49 128 -81 187 -8 14 -25 50 -40 80
-14 30 -30 57 -35 60 -4 3 -18 27 -29 52 -11 26 -25 50 -30 53 -6 4 -19 23
-31 43 -11 20 -31 53 -44 72 -13 19 -35 50 -47 68 -24 35 -33 46 -148 182
-128 151 -330 328 -507 445 -29 19 -57 35 -62 35 -4 0 -15 7 -22 16 -8 9 -32
25 -54 34 -22 10 -51 27 -64 39 -13 11 -32 21 -41 21 -9 0 -37 13 -61 30 -24
16 -51 30 -59 30 -9 0 -31 11 -51 24 -19 13 -55 30 -80 36 -24 7 -51 18 -60
26 -9 8 -39 21 -68 30 -29 8 -69 24 -90 34 -20 11 -63 23 -96 29 -33 5 -80 18
-105 29 -25 11 -67 23 -95 27 -27 4 -85 18 -129 31 -43 14 -124 29 -179 35
-55 5 -108 14 -118 19 -24 14 -195 37 -324 45 -60 3 -148 13 -195 21 -253 45
-1396 56 -5355 51 -2976 -3 -3482 -6 -3825 -20 -217 -9 -410 -21 -429 -27 -19
-5 -93 -14 -165 -20 -190 -15 -316 -31 -358 -46 -21 -7 -83 -18 -139 -24 -56
-6 -136 -22 -178 -35 -42 -13 -97 -26 -124 -30 -26 -3 -68 -15 -92 -26 -25
-11 -72 -25 -105 -30 -33 -5 -81 -21 -106 -34 -26 -14 -54 -25 -63 -25 -9 0
-43 -14 -76 -30 -33 -16 -67 -30 -76 -30 -9 0 -32 -11 -52 -24 -19 -13 -45
-27 -57 -31 -33 -10 -161 -77 -197 -103 -17 -12 -35 -22 -40 -22 -10 0 -111
-62 -133 -82 -9 -7 -37 -26 -63 -41 -26 -15 -47 -32 -47 -37 0 -5 -11 -12 -24
-16 -13 -3 -33 -15 -44 -27 -11 -12 -39 -38 -63 -57 -110 -90 -409 -409 -409
-437 0 -5 -11 -22 -25 -38 -48 -58 -72 -95 -155 -240 -44 -76 -130 -250 -130
-262 0 -6 -9 -22 -20 -36 -11 -14 -23 -40 -27 -59 -3 -18 -19 -57 -35 -87 -15
-30 -28 -61 -28 -70 0 -9 -9 -35 -20 -56 -12 -22 -29 -76 -39 -120 -10 -44
-23 -90 -30 -103 -6 -12 -20 -71 -31 -130 -11 -60 -26 -127 -34 -149 -8 -22
-19 -87 -25 -144 -5 -57 -19 -142 -30 -189 -13 -54 -24 -153 -31 -275 -6 -104
-17 -237 -25 -295 -32 -232 -35 -599 -35 -4682 0 -4081 3 -4446 35 -4663 8
-55 19 -188 25 -295 7 -126 18 -225 31 -280 11 -47 25 -132 30 -189 6 -57 17
-122 25 -144 8 -22 23 -88 34 -146 10 -58 26 -123 34 -144 9 -20 23 -67 31
-105 8 -37 23 -85 35 -107 11 -21 20 -47 20 -57 0 -20 19 -67 36 -88 7 -8 17
-34 23 -57 6 -23 23 -61 36 -85 14 -24 25 -50 25 -59 0 -9 9 -27 19 -41 11
-14 28 -45 37 -69 9 -24 25 -53 34 -64 9 -11 23 -36 30 -55 8 -19 20 -42 27
-50 20 -22 93 -136 93 -145 0 -4 12 -22 27 -40 16 -19 44 -55 63 -81 19 -25
44 -57 55 -70 11 -12 36 -41 55 -64 74 -87 203 -209 300 -284 64 -49 90 -70
131 -105 20 -17 52 -38 70 -46 31 -15 61 -34 129 -82 14 -10 43 -26 65 -36 22
-10 46 -24 55 -31 8 -7 36 -20 62 -30 25 -9 52 -23 58 -31 6 -7 26 -17 43 -21
18 -3 50 -17 72 -29 22 -13 58 -28 80 -35 22 -7 54 -20 70 -30 17 -9 52 -23
79 -29 27 -7 65 -20 85 -30 20 -10 59 -22 86 -26 28 -4 80 -17 116 -30 36 -12
95 -26 130 -30 35 -3 91 -15 124 -25 78 -24 97 -27 240 -40 66 -6 145 -17 176
-25 31 -8 169 -22 305 -30 137 -9 314 -23 394 -32 132 -15 450 -17 3520 -20
1856 -2 3385 -5 3396 -8 26 -6 80 -111 90 -176 4 -24 17 -62 29 -84 12 -22 28
-62 35 -90 6 -27 17 -57 25 -65 7 -8 20 -40 29 -71 9 -31 22 -62 30 -69 8 -6
22 -35 30 -65 9 -29 22 -58 30 -64 8 -7 20 -29 27 -49 7 -20 20 -47 29 -59 9
-12 25 -42 34 -67 10 -25 21 -46 25 -46 5 0 16 -19 27 -42 10 -24 28 -56 41
-71 13 -16 23 -34 23 -41 0 -7 14 -30 30 -51 17 -21 30 -43 30 -50 0 -6 9 -20
20 -30 16 -14 20 -29 18 -59 l-3 -41 -2740 -3 c-3975 -3 -5438 15 -5759 73
-44 8 -150 19 -235 25 -86 6 -190 20 -231 31 -41 10 -115 24 -165 30 -49 5
-115 18 -145 29 -30 10 -91 23 -135 30 -44 6 -93 18 -110 26 -16 8 -69 23
-117 34 -48 10 -100 25 -115 34 -16 8 -47 18 -68 21 -22 4 -65 21 -95 36 -30
16 -64 29 -76 29 -11 0 -35 11 -52 24 -18 13 -53 29 -77 36 -25 7 -50 18 -56
26 -6 7 -32 20 -59 29 -26 9 -56 25 -65 35 -10 11 -25 20 -34 20 -9 0 -41 16
-71 35 -30 19 -60 35 -66 35 -6 0 -18 7 -25 17 -8 9 -33 25 -56 35 -23 10 -45
23 -48 28 -4 6 -23 19 -43 31 -37 20 -85 52 -132 89 -14 10 -65 51 -115 89
-49 38 -104 82 -121 98 -17 15 -59 53 -94 83 -99 86 -262 253 -410 419 -35 39
-105 131 -154 201 -14 19 -43 60 -65 90 -23 30 -47 70 -55 87 -8 18 -19 33
-23 33 -5 0 -19 19 -31 43 -13 23 -38 67 -57 97 -19 30 -44 75 -56 100 -12 25
-29 56 -39 70 -9 14 -22 40 -28 58 -6 18 -20 45 -30 60 -11 15 -25 44 -30 66
-6 21 -18 46 -26 55 -8 9 -21 40 -30 70 -9 30 -23 64 -31 77 -8 12 -20 44 -26
71 -7 26 -20 66 -30 87 -10 22 -24 66 -30 99 -5 33 -19 82 -30 109 -11 27 -24
84 -31 126 -6 43 -19 98 -29 124 -10 26 -23 89 -29 140 -6 51 -19 127 -30 168
-10 41 -24 135 -30 208 -6 73 -18 179 -26 235 -23 167 -40 495 -65 1242 -15
452 -6 8551 9 8800 6 99 16 306 21 460 6 168 18 336 30 420 11 77 25 199 31
270 6 72 19 164 30 205 10 41 22 109 26 150 3 41 17 109 29 150 13 41 28 108
34 148 7 41 18 86 25 101 8 15 21 61 30 103 9 41 25 97 36 123 11 27 25 69 31
94 6 25 16 52 24 61 7 8 16 29 20 45 4 17 20 57 35 90 16 33 45 96 65 140 20
44 41 87 46 95 5 8 21 40 36 70 14 30 30 58 35 61 5 3 20 28 34 55 29 59 61
110 92 148 12 16 22 34 22 41 0 6 9 20 21 31 12 10 29 35 39 54 40 76 286 373
431 520 104 105 203 197 249 231 19 15 52 42 73 60 20 19 58 50 84 69 25 19
60 47 78 63 18 15 38 27 44 27 6 0 20 9 31 20 23 23 87 67 141 96 22 12 48 29
57 38 10 9 23 16 29 16 5 0 27 13 49 30 21 16 44 30 49 30 6 0 35 16 65 35 30
19 62 35 71 35 9 0 24 8 33 19 9 10 37 24 61 31 25 7 59 23 77 36 17 13 39 24
48 24 9 0 39 11 66 25 27 14 67 30 89 36 22 5 60 20 85 33 25 13 68 27 95 31
28 4 70 15 95 25 25 11 82 26 128 35 46 9 98 23 116 30 18 8 72 19 119 25 48
6 115 19 149 30 35 10 110 24 168 29 58 6 131 15 163 21 31 5 83 15 115 20 31
6 145 15 252 20 107 6 263 17 345 26 83 8 249 19 370 23 336 12 8788 13 9121
1z m-38 -2630 c37 -6 141 -17 232 -24 112 -10 184 -21 224 -35 33 -11 83 -24
110 -27 28 -4 83 -20 123 -35 39 -16 80 -29 90 -29 10 0 45 -14 78 -30 33 -17
67 -30 75 -30 9 0 31 -11 50 -25 19 -14 41 -25 49 -25 9 0 32 -10 51 -23 19
-12 51 -31 70 -42 69 -39 102 -61 178 -117 42 -32 79 -58 82 -58 4 0 21 -13
38 -28 18 -16 49 -44 69 -62 109 -97 133 -121 190 -188 35 -40 68 -83 74 -95
7 -12 18 -26 26 -30 7 -4 22 -26 33 -48 11 -21 25 -39 30 -39 5 0 17 -17 25
-37 9 -21 24 -47 34 -58 10 -11 23 -34 30 -52 7 -17 21 -39 31 -48 11 -10 22
-31 25 -47 4 -17 18 -46 30 -64 13 -19 27 -49 30 -67 4 -18 16 -46 26 -63 10
-16 25 -56 33 -89 9 -32 22 -68 31 -81 8 -12 19 -53 25 -90 6 -37 20 -88 30
-113 12 -27 26 -102 35 -181 8 -74 20 -153 26 -175 16 -60 30 -1162 27 -2095
l-3 -815 -29 -60 c-26 -55 -94 -135 -115 -135 -4 0 -25 -13 -45 -29 -20 -16
-51 -33 -67 -36 -17 -4 -33 -13 -35 -20 -3 -7 -26 -21 -52 -30 -26 -10 -56
-26 -67 -35 -11 -10 -31 -21 -45 -25 -14 -4 -38 -17 -55 -30 -16 -12 -41 -26
-55 -30 -14 -4 -34 -16 -45 -26 -11 -10 -37 -25 -57 -33 -20 -9 -39 -20 -43
-26 -3 -5 -31 -21 -61 -35 -30 -14 -54 -28 -54 -32 0 -5 -20 -16 -44 -26 -24
-10 -52 -27 -62 -38 -9 -10 -25 -19 -34 -19 -9 0 -27 -11 -39 -24 -13 -14 -37
-30 -54 -37 -18 -7 -44 -22 -58 -33 -26 -21 -54 -39 -134 -86 -49 -29 -190
-122 -220 -145 -39 -30 -91 -64 -130 -86 -22 -12 -46 -30 -53 -40 -7 -11 -19
-19 -25 -19 -7 0 -25 -12 -42 -26 -16 -14 -42 -32 -57 -40 -15 -8 -39 -25 -54
-39 -15 -14 -31 -25 -37 -25 -5 0 -19 -9 -31 -21 -35 -34 -107 -89 -117 -89
-5 0 -23 -12 -39 -27 -17 -16 -48 -41 -71 -58 -22 -16 -60 -46 -84 -65 -24
-19 -63 -48 -85 -65 -23 -16 -54 -41 -70 -55 -34 -29 -76 -64 -145 -119 -27
-23 -62 -51 -77 -63 -14 -13 -43 -36 -63 -53 -20 -16 -52 -43 -70 -60 -53 -48
-74 -67 -175 -154 -138 -120 -245 -220 -381 -353 -66 -65 -125 -118 -130 -118
-5 0 -14 -11 -19 -25 -5 -14 -21 -30 -35 -37 -14 -6 -25 -14 -25 -18 0 -4 -53
-61 -117 -127 -141 -144 -215 -222 -266 -283 -36 -42 -121 -138 -192 -215 -16
-19 -43 -50 -60 -69 -16 -20 -54 -62 -82 -94 -29 -31 -53 -60 -53 -64 0 -8
-68 -91 -105 -128 -14 -14 -25 -30 -25 -36 0 -7 -11 -19 -25 -28 -14 -9 -25
-23 -25 -31 0 -7 -11 -22 -23 -32 -13 -10 -30 -30 -37 -43 -7 -14 -24 -38 -37
-55 -13 -16 -51 -64 -83 -105 -32 -41 -70 -88 -83 -105 -13 -16 -32 -45 -42
-62 -11 -18 -23 -33 -27 -33 -4 0 -15 -14 -23 -31 -9 -16 -23 -38 -31 -47 -19
-21 -58 -77 -81 -116 -10 -16 -28 -39 -40 -51 -13 -12 -23 -26 -23 -30 0 -11
-88 -140 -105 -155 -8 -7 -15 -18 -15 -25 0 -7 -16 -32 -35 -56 -19 -24 -35
-49 -35 -55 0 -6 -11 -21 -25 -34 -14 -13 -25 -29 -25 -35 0 -7 -13 -29 -30
-50 -16 -21 -30 -43 -30 -49 0 -6 -13 -26 -30 -44 -16 -18 -30 -39 -30 -46 0
-7 -13 -30 -30 -52 -16 -21 -30 -44 -30 -51 0 -6 -11 -24 -24 -40 -13 -15 -26
-38 -30 -51 -4 -12 -18 -34 -30 -50 -13 -15 -27 -38 -31 -52 -4 -14 -17 -36
-30 -50 -13 -14 -26 -36 -30 -50 -4 -14 -18 -38 -30 -55 -13 -16 -31 -46 -40
-65 -9 -19 -31 -62 -50 -95 -19 -33 -46 -86 -61 -117 -15 -32 -30 -58 -35 -58
-4 0 -15 -22 -24 -49 -9 -27 -24 -56 -35 -66 -10 -9 -22 -30 -25 -46 -4 -15
-15 -39 -26 -53 -11 -14 -26 -44 -34 -67 -9 -24 -22 -50 -30 -59 -8 -9 -21
-35 -30 -59 -8 -23 -24 -54 -35 -68 -11 -14 -20 -33 -20 -43 0 -9 -13 -37 -30
-61 -16 -24 -30 -53 -30 -65 0 -12 -12 -39 -26 -60 -14 -21 -32 -58 -39 -82
-8 -24 -20 -51 -28 -60 -8 -10 -20 -38 -27 -64 -7 -26 -19 -53 -26 -59 -8 -6
-23 -41 -34 -77 -11 -36 -27 -73 -35 -82 -7 -8 -18 -34 -23 -57 -5 -23 -19
-54 -30 -70 -11 -15 -23 -44 -27 -63 -4 -19 -19 -60 -35 -90 -15 -30 -30 -71
-34 -91 -4 -21 -13 -42 -20 -48 -8 -7 -22 -43 -31 -82 -10 -38 -23 -76 -30
-83 -7 -7 -20 -40 -29 -74 -8 -34 -24 -79 -35 -99 -10 -21 -22 -58 -26 -83 -4
-25 -17 -63 -30 -85 -12 -22 -26 -60 -30 -85 -4 -25 -15 -62 -26 -83 -11 -22
-26 -70 -34 -108 -8 -38 -21 -79 -29 -92 -8 -12 -20 -49 -26 -82 -7 -33 -23
-80 -36 -105 -13 -25 -24 -54 -24 -65 0 -29 -62 -112 -112 -149 l-42 -31 -441
-3 c-242 -2 -481 -1 -532 3 -85 6 -95 9 -138 42 -37 29 -48 46 -61 92 -9 31
-21 61 -26 68 -5 6 -18 79 -28 162 -11 83 -26 177 -35 210 -8 32 -18 101 -21
153 -4 51 -17 129 -30 174 -13 44 -28 126 -33 182 -6 56 -20 128 -30 160 -11
32 -25 98 -31 147 -6 48 -17 100 -25 115 -8 15 -21 71 -30 126 -9 54 -22 111
-30 127 -8 15 -21 66 -30 113 -9 47 -24 107 -34 132 -10 26 -22 72 -26 102 -4
30 -18 80 -30 112 -13 31 -26 80 -30 110 -4 29 -15 69 -25 88 -9 20 -25 68
-34 109 -9 40 -23 82 -31 94 -7 12 -18 49 -24 81 -6 33 -20 76 -30 96 -10 20
-26 65 -35 98 -9 34 -22 72 -30 85 -9 12 -20 47 -27 77 -6 30 -19 69 -30 85
-10 17 -23 52 -29 79 -6 27 -22 72 -35 101 -14 28 -25 58 -25 66 0 8 -14 41
-30 74 -16 33 -30 69 -30 80 -1 11 -14 45 -30 75 -17 30 -30 63 -30 73 0 9
-14 41 -30 70 -16 30 -30 62 -30 73 0 10 -9 34 -20 52 -12 19 -28 55 -36 80
-9 26 -22 54 -29 62 -7 8 -23 42 -34 74 -11 32 -27 66 -35 75 -7 9 -17 30 -20
47 -4 17 -18 46 -31 64 -13 18 -27 46 -31 62 -3 17 -17 46 -30 66 -14 19 -27
47 -31 61 -3 14 -12 33 -19 41 -7 8 -22 37 -33 64 -12 26 -30 59 -41 73 -11
14 -20 33 -20 43 0 9 -12 35 -26 56 -15 21 -31 52 -37 69 -5 16 -18 39 -28 50
-10 12 -24 36 -30 55 -7 19 -20 44 -30 55 -9 11 -25 39 -34 63 -10 23 -21 42
-25 42 -4 0 -15 17 -23 38 -9 20 -27 52 -41 71 -14 19 -26 42 -26 52 0 9 -7
22 -16 30 -8 7 -25 31 -36 53 -12 23 -31 55 -44 72 -13 17 -24 36 -24 42 0 6
-10 23 -23 39 -12 15 -28 39 -35 53 -7 14 -22 39 -35 56 -12 18 -31 47 -42 65
-34 56 -59 93 -100 153 -51 74 -84 124 -112 167 -31 49 -64 96 -93 132 -14 18
-29 39 -35 48 -28 44 -74 110 -112 159 -23 30 -62 82 -87 115 -70 94 -99 133
-121 160 -11 13 -38 47 -60 76 -22 28 -106 130 -188 228 -81 97 -160 191 -175
210 -15 18 -40 48 -57 66 -16 17 -68 74 -115 125 -239 261 -648 670 -886 885
-37 33 -81 74 -99 90 -17 17 -51 46 -75 65 -23 19 -106 89 -184 154 -78 66
-175 145 -216 177 -41 32 -90 71 -107 86 -58 50 -67 57 -133 105 -69 50 -94
69 -150 116 -19 16 -46 35 -59 42 -40 21 -141 101 -193 153 -87 87 -82 24 -86
1072 -4 1060 10 1454 57 1625 11 41 25 108 31 148 5 40 17 86 24 101 8 15 22
59 31 97 9 38 22 78 30 90 7 12 20 46 28 77 8 31 24 69 36 85 12 17 21 36 21
44 0 7 9 29 20 48 11 19 31 58 44 86 13 28 29 55 35 58 6 4 18 22 26 39 21 45
98 154 148 209 15 17 27 34 27 37 0 10 180 192 224 226 21 17 67 54 101 83 35
28 67 52 72 52 4 0 30 16 57 35 27 19 55 35 61 35 7 0 20 9 29 19 10 11 31 23
47 26 15 4 44 17 64 31 20 13 48 27 63 30 15 4 53 19 85 35 32 16 66 29 77 29
11 0 57 13 103 29 140 48 450 66 567 32 31 -9 85 -54 143 -118 9 -11 24 -42
33 -69 9 -27 23 -56 30 -65 8 -9 21 -38 31 -65 9 -27 24 -60 33 -74 10 -14 23
-44 29 -66 6 -23 20 -52 30 -66 11 -13 24 -43 30 -66 7 -23 23 -59 36 -79 14
-20 25 -46 25 -58 0 -12 8 -33 18 -46 10 -13 26 -46 36 -74 11 -27 24 -57 31
-65 6 -8 20 -37 30 -65 10 -27 26 -61 35 -75 9 -14 20 -38 24 -55 4 -16 18
-46 31 -66 13 -20 27 -53 30 -72 4 -20 16 -46 26 -59 11 -12 26 -46 35 -75 8
-29 19 -53 23 -53 10 0 31 -46 31 -69 0 -10 11 -35 25 -55 14 -20 28 -49 31
-64 4 -15 19 -52 35 -82 15 -30 31 -68 35 -85 4 -16 15 -40 25 -53 10 -13 25
-48 34 -78 8 -30 20 -54 25 -54 5 0 16 -21 23 -47 8 -27 26 -70 41 -97 14 -27
26 -57 26 -66 0 -10 11 -34 25 -54 14 -20 28 -49 31 -64 4 -15 17 -45 29 -67
13 -22 28 -60 35 -85 6 -25 18 -52 25 -60 7 -8 21 -40 31 -70 9 -30 26 -66 36
-79 10 -13 18 -32 18 -41 0 -10 13 -43 29 -73 16 -30 32 -70 36 -88 4 -18 18
-49 30 -69 13 -19 26 -50 30 -68 4 -18 20 -58 36 -90 16 -31 29 -67 29 -78 0
-12 9 -32 19 -46 11 -13 27 -50 36 -81 9 -31 20 -59 25 -62 5 -3 18 -36 31
-73 12 -37 27 -74 35 -82 7 -9 18 -37 24 -64 6 -27 19 -61 29 -75 11 -14 24
-46 31 -71 6 -25 22 -67 36 -94 13 -28 24 -57 24 -66 0 -10 10 -37 23 -61 13
-24 29 -66 37 -94 8 -27 24 -70 37 -94 13 -24 23 -53 23 -64 0 -11 11 -39 24
-61 12 -23 29 -63 35 -91 7 -27 19 -60 27 -72 8 -12 21 -48 29 -79 8 -31 21
-66 28 -78 8 -12 22 -48 31 -81 9 -33 25 -76 35 -95 10 -19 24 -57 30 -84 7
-27 20 -65 31 -85 10 -20 22 -55 26 -76 3 -22 17 -60 30 -86 12 -25 26 -63 30
-85 4 -21 20 -71 35 -111 16 -39 29 -80 29 -90 0 -10 7 -31 16 -48 9 -16 25
-64 35 -105 11 -41 26 -85 35 -97 8 -13 20 -49 25 -80 6 -32 20 -75 31 -96 10
-21 24 -67 30 -100 6 -34 18 -78 28 -97 10 -19 25 -68 34 -108 9 -41 23 -83
31 -95 7 -12 19 -51 26 -87 6 -36 20 -81 30 -101 9 -19 23 -64 29 -100 6 -35
20 -82 30 -104 11 -22 24 -70 30 -106 5 -37 19 -86 29 -110 11 -25 25 -74 30
-110 6 -37 19 -86 30 -110 10 -24 24 -75 31 -114 7 -38 18 -80 26 -91 7 -12
20 -63 29 -114 9 -50 24 -113 34 -139 11 -26 22 -74 26 -106 4 -33 18 -88 31
-122 13 -35 26 -91 30 -125 3 -35 15 -83 25 -107 11 -25 26 -86 34 -137 9 -51
22 -109 30 -129 9 -20 20 -72 26 -117 5 -44 17 -99 25 -122 18 -47 27 -90 44
-199 6 -43 18 -94 26 -113 8 -19 19 -72 24 -117 6 -45 21 -122 34 -172 14 -49
29 -132 35 -183 5 -52 15 -100 21 -107 6 -7 18 -66 27 -132 8 -65 24 -147 34
-183 11 -36 23 -110 29 -165 5 -55 18 -129 29 -165 11 -36 25 -112 31 -170 5
-58 19 -139 30 -180 11 -41 25 -128 31 -193 5 -65 14 -130 20 -144 18 -49 30
-118 40 -230 5 -62 17 -148 28 -190 11 -43 25 -136 31 -208 6 -71 20 -162 30
-200 10 -39 21 -120 25 -180 4 -61 18 -163 30 -227 13 -65 27 -168 31 -230 3
-62 15 -154 25 -205 10 -50 23 -151 29 -225 19 -224 52 -431 72 -456 16 -18
34 2 41 43 3 20 15 47 26 61 11 14 27 50 36 80 8 30 20 54 25 54 5 0 16 26 25
58 9 31 23 64 32 73 8 10 20 40 28 67 7 28 22 64 33 79 11 15 23 44 27 63 4
19 20 59 35 90 15 30 31 71 34 91 4 21 13 43 21 49 9 7 22 38 31 69 9 31 23
66 31 79 8 13 21 49 29 80 8 31 21 63 29 72 7 8 19 38 25 65 7 28 23 68 35 90
12 22 25 58 29 80 4 22 16 55 27 73 10 18 26 60 34 93 9 34 22 71 30 83 8 11
20 46 28 77 8 30 24 73 36 94 12 22 21 49 21 60 0 11 12 47 26 80 14 33 30 80
35 105 5 25 20 65 33 90 13 25 26 65 30 90 4 24 15 58 25 75 10 16 24 57 31
90 7 33 20 76 30 95 10 20 23 62 29 94 6 32 19 72 30 90 11 17 23 54 27 81 4
28 17 73 29 100 13 28 28 76 34 108 6 32 17 70 25 85 20 38 36 90 36 121 0 15
9 45 20 66 12 22 28 76 36 120 9 44 22 90 30 103 8 13 21 58 29 102 8 43 22
96 33 117 11 21 23 64 27 97 4 32 15 78 26 102 10 25 26 83 35 131 9 48 22 96
29 107 7 12 20 64 30 116 9 52 23 106 30 120 7 14 16 48 20 75 10 77 26 147
42 178 7 15 18 63 24 108 5 44 19 103 30 131 11 27 24 84 30 126 5 43 18 102
29 132 10 30 23 93 30 140 6 47 20 110 30 140 10 30 24 96 30 145 6 50 20 117
30 150 10 33 24 103 29 156 6 53 20 125 30 160 11 35 25 114 31 174 6 61 17
130 25 155 18 57 32 142 40 248 4 46 13 101 20 123 8 21 19 85 25 141 19 188
32 283 41 299 4 9 17 112 28 230 11 118 27 246 35 284 8 39 17 135 21 215 3
80 17 228 31 330 16 127 27 280 34 490 6 168 15 341 21 385 29 234 29 1536 0
1710 -6 33 -15 201 -21 374 -7 226 -17 364 -34 495 -14 100 -27 237 -31 306
-3 69 -13 154 -21 190 -8 36 -24 147 -34 248 -11 101 -27 204 -36 230 -11 32
-17 84 -18 164 -1 106 1 119 22 147 12 16 22 34 22 39 0 4 18 26 40 47 30 30
59 45 113 61 l72 22 1463 1 c959 1 1486 -3 1530 -9z m2723 -9699 c80 -5 165
-15 188 -21 23 -6 99 -22 169 -35 164 -31 282 -61 360 -91 34 -13 72 -24 85
-24 12 0 45 -11 72 -23 28 -13 75 -32 105 -42 30 -10 64 -24 75 -31 11 -8 26
-14 34 -14 13 0 145 -59 202 -90 9 -5 65 -34 125 -66 60 -31 116 -62 124 -70
8 -7 26 -18 40 -24 14 -6 39 -21 56 -33 18 -12 47 -31 65 -42 72 -43 95 -58
121 -79 15 -11 46 -34 68 -51 23 -16 69 -53 103 -80 34 -28 78 -62 97 -77 38
-27 367 -352 410 -403 13 -17 46 -57 72 -90 26 -33 56 -71 67 -85 55 -66 80
-101 123 -166 26 -39 54 -77 63 -84 8 -7 15 -18 15 -24 0 -7 16 -35 35 -62 19
-27 35 -54 35 -60 0 -6 9 -19 20 -29 10 -9 24 -34 31 -54 6 -20 19 -45 29 -56
9 -11 25 -41 35 -67 10 -26 24 -53 31 -59 8 -6 19 -29 24 -50 6 -22 22 -56 35
-76 14 -20 25 -44 25 -54 0 -10 13 -44 29 -76 16 -32 32 -74 36 -93 4 -19 15
-48 25 -65 10 -16 26 -61 34 -98 9 -37 22 -80 30 -95 7 -15 17 -47 21 -72 4
-25 17 -76 30 -115 12 -38 25 -97 29 -130 4 -33 19 -116 34 -185 l27 -125 -1
-475 c0 -458 -1 -479 -23 -580 -12 -58 -29 -148 -36 -200 -8 -52 -20 -111 -29
-130 -8 -19 -22 -71 -31 -115 -9 -43 -20 -84 -25 -91 -6 -6 -18 -44 -28 -85
-11 -41 -29 -92 -41 -114 -11 -22 -21 -49 -21 -60 0 -11 -13 -46 -29 -77 -16
-32 -33 -72 -36 -90 -4 -18 -16 -43 -26 -56 -10 -13 -25 -45 -34 -72 -9 -27
-22 -54 -30 -60 -8 -6 -19 -28 -26 -48 -6 -20 -19 -46 -29 -57 -9 -11 -22 -35
-28 -53 -6 -19 -23 -47 -37 -64 -14 -16 -25 -35 -25 -41 0 -7 -14 -30 -30 -51
-17 -22 -30 -45 -30 -51 0 -7 -9 -20 -21 -31 -12 -10 -30 -35 -40 -54 -28 -50
-89 -134 -134 -184 -11 -13 -42 -51 -69 -87 -27 -35 -61 -77 -75 -93 -49 -54
-348 -351 -392 -388 -24 -20 -74 -61 -111 -92 -36 -31 -70 -56 -74 -56 -4 0
-17 -9 -28 -19 -28 -26 -114 -87 -151 -107 -16 -9 -34 -23 -38 -30 -4 -8 -14
-14 -21 -14 -7 0 -31 -13 -52 -28 -22 -16 -82 -52 -134 -81 -52 -28 -102 -56
-110 -61 -17 -11 -75 -40 -140 -70 -25 -12 -67 -32 -94 -46 -28 -13 -56 -24
-64 -24 -8 0 -35 -11 -61 -24 -51 -26 -68 -32 -311 -113 -25 -8 -74 -22 -110
-30 -36 -8 -94 -24 -129 -35 -36 -10 -115 -26 -175 -34 -61 -8 -136 -23 -166
-32 -49 -15 -113 -17 -555 -17 -443 0 -506 2 -555 17 -30 9 -109 24 -174 33
-66 9 -128 21 -138 26 -10 5 -64 20 -121 33 -56 14 -122 31 -147 40 -25 8 -72
24 -105 35 -112 36 -180 62 -216 81 -20 11 -43 20 -50 20 -11 0 -126 51 -189
85 -14 7 -70 36 -125 65 -55 29 -110 61 -124 71 -13 10 -29 19 -36 19 -7 0
-29 14 -50 30 -21 17 -49 33 -62 36 -13 4 -28 15 -34 25 -5 11 -16 19 -23 19
-8 0 -33 16 -56 35 -23 19 -46 35 -50 35 -4 0 -26 15 -48 33 -22 17 -54 43
-72 57 -169 129 -397 348 -548 525 -56 66 -110 129 -119 140 -28 31 -74 94
-125 170 -26 39 -56 81 -68 95 -11 14 -20 30 -20 36 0 6 -13 28 -30 49 -16 21
-30 43 -30 49 0 6 -11 24 -25 40 -14 16 -25 35 -25 41 0 7 -12 30 -26 51 -15
21 -33 57 -41 79 -7 21 -22 49 -32 60 -10 11 -22 34 -26 52 -3 18 -15 43 -25
56 -10 12 -26 49 -35 80 -9 31 -20 59 -25 62 -5 3 -19 36 -30 73 -12 37 -27
76 -35 88 -8 12 -21 52 -30 88 -8 37 -23 86 -34 109 -10 23 -22 67 -26 97 -4
30 -16 77 -27 104 -10 27 -25 92 -33 145 -7 53 -22 132 -32 176 -16 72 -18
133 -18 585 0 484 1 509 22 605 12 55 25 129 29 165 4 36 17 94 29 130 13 36
28 94 34 129 6 35 15 68 20 75 5 6 19 49 31 95 11 46 27 93 35 105 7 11 19 41
25 66 6 25 20 60 30 77 11 18 24 51 30 74 6 23 22 58 35 78 13 20 26 50 30 67
3 18 15 40 26 50 10 9 24 34 29 55 6 21 17 45 25 53 9 8 24 34 36 58 26 57 69
127 97 163 12 15 22 33 22 39 0 7 8 21 19 32 10 11 24 31 31 43 14 28 68 102
147 205 169 217 416 472 613 631 25 19 56 45 70 56 71 57 176 134 207 152 24
14 62 39 120 78 23 16 46 29 51 29 5 0 20 9 33 19 14 10 69 42 124 71 55 29
111 58 125 66 63 34 196 94 210 94 8 0 26 7 38 16 12 8 46 22 74 30 29 9 68
24 86 35 18 10 52 22 75 25 23 4 67 17 97 29 30 13 83 28 117 35 34 6 78 17
97 25 19 8 90 24 158 35 68 11 141 25 163 31 22 6 94 15 160 19 176 10 688 11
856 1z m-13641 -1024 c13 -9 58 -24 99 -33 42 -9 86 -22 98 -30 12 -7 54 -20
94 -28 39 -9 82 -22 95 -30 12 -9 54 -22 92 -30 39 -8 81 -22 94 -30 13 -8 48
-20 78 -27 30 -6 71 -19 90 -29 19 -9 66 -25 103 -34 38 -9 78 -23 90 -31 12
-8 47 -19 77 -26 30 -6 75 -22 100 -35 25 -13 55 -24 67 -24 13 0 52 -13 86
-30 35 -16 73 -30 83 -30 10 0 46 -14 79 -30 33 -16 67 -30 75 -30 8 0 42 -14
75 -30 33 -17 66 -30 74 -30 8 0 33 -11 55 -24 23 -13 59 -29 81 -36 22 -7 60
-24 84 -37 24 -12 50 -23 58 -23 8 0 28 -9 43 -20 16 -11 48 -27 71 -35 24 -9
50 -22 59 -29 8 -7 36 -21 62 -31 26 -10 53 -24 59 -31 6 -7 27 -18 47 -25 20
-7 51 -22 67 -34 17 -13 41 -26 54 -30 13 -4 44 -20 69 -36 25 -16 51 -29 58
-29 6 0 17 -7 25 -16 7 -8 33 -27 58 -40 88 -48 143 -81 150 -90 3 -5 22 -17
41 -27 19 -9 80 -49 135 -88 55 -38 111 -77 125 -87 14 -9 35 -25 47 -37 20
-19 39 -34 150 -114 79 -57 223 -185 389 -346 51 -49 99 -95 106 -101 12 -10
150 -161 213 -232 17 -18 41 -46 55 -61 14 -16 43 -52 65 -81 22 -29 50 -64
63 -78 12 -14 22 -29 22 -34 0 -5 11 -19 24 -31 33 -31 76 -144 77 -205 1 -27
-5 -64 -14 -81 -8 -17 -18 -44 -22 -61 -4 -18 -27 -48 -58 -75 -97 -88 28 -80
-1232 -80 -1170 1 -1209 2 -1388 45 -45 11 -98 20 -117 20 -19 0 -60 10 -90
21 -30 11 -90 28 -132 38 -42 10 -83 22 -90 28 -7 6 -35 18 -63 26 -27 8 -72
26 -99 41 -27 14 -54 26 -61 26 -7 0 -28 11 -48 24 -19 13 -46 27 -58 31 -13
4 -42 20 -63 36 -22 16 -45 29 -52 29 -6 0 -17 7 -25 16 -7 8 -30 24 -51 35
-21 11 -47 28 -57 37 -11 9 -34 29 -52 44 -126 100 -221 193 -317 308 -34 41
-68 82 -76 90 -20 23 -120 182 -144 229 -7 15 -19 37 -27 51 -8 14 -22 41 -31
60 -9 19 -29 62 -45 95 -16 33 -29 67 -29 75 0 8 -9 30 -20 48 -12 19 -28 63
-36 99 -8 37 -21 78 -29 92 -7 15 -20 67 -29 116 -8 50 -22 110 -31 135 -9 25
-20 101 -26 170 -35 463 -38 601 -10 706 22 84 49 124 116 170 49 34 52 35
135 31 60 -2 93 -8 110 -20z m9191 -1114 c8 -22 6 -32 -10 -53 -10 -15 -26
-49 -34 -76 -8 -27 -24 -65 -36 -84 -11 -19 -21 -43 -21 -53 0 -10 -13 -46
-29 -80 -15 -34 -32 -80 -35 -102 -4 -22 -18 -62 -31 -90 -12 -27 -26 -75 -30
-105 -4 -30 -16 -73 -27 -94 -11 -21 -26 -83 -34 -137 -7 -55 -20 -111 -28
-127 -13 -25 -26 -110 -41 -267 -3 -33 -12 -82 -21 -110 -9 -33 -17 -116 -21
-240 -4 -149 -9 -194 -21 -207 -14 -17 -53 -18 -551 -18 -308 0 -554 5 -578
10 -78 18 -186 111 -219 187 -21 49 -18 170 5 213 11 19 26 46 33 60 26 49
272 302 457 470 58 52 119 109 137 125 18 17 52 46 74 65 23 19 48 40 55 47
19 18 101 85 147 121 24 18 73 57 110 87 36 30 70 55 73 55 4 0 25 16 48 35
22 19 45 35 50 35 9 0 62 41 102 78 11 11 35 27 53 36 18 9 41 24 50 32 24 21
80 60 122 83 19 10 44 28 54 40 11 12 25 21 31 21 7 0 25 10 41 23 65 51 110
59 125 20z"/>
</g>
</svg>
