<svg xmlns="http://www.w3.org/2000/svg" height="800" width="1200" viewBox="-18.75 -10 162.5 60"><path d="M25.409 13.754c-.297-1.115-1.177-1.994-2.295-2.295-2.023-.541-10.139-.541-10.139-.541s-8.112 0-10.139.541c-1.115.297-1.994 1.177-2.295 2.295C0 15.777 0 20 0 20s0 4.223.541 6.246c.297 1.115 1.177 1.994 2.295 2.295 2.027.541 10.139.541 10.139.541s8.116 0 10.139-.541c1.115-.297 1.994-1.177 2.295-2.295.541-2.023.541-6.246.541-6.246s0-4.223-.541-6.246z" fill="red"/><path fill="#FFF" d="M10.382 16.107v7.786L17.124 20z"/><path d="M37.666 27.443c-.512-.347-.879-.883-1.094-1.614-.215-.731-.326-1.701-.326-2.915v-1.651c0-1.226.124-2.209.372-2.952.248-.743.636-1.284 1.16-1.622.524-.339 1.214-.512 2.068-.512.842 0 1.515.173 2.023.52.508.347.879.888 1.115 1.622.235.735.351 1.717.351 2.939v1.651c0 1.214-.116 2.188-.343 2.923-.227.735-.599 1.276-1.115 1.614-.512.339-1.21.512-2.089.512-.9.005-1.61-.168-2.122-.515zm2.877-1.783c.14-.372.215-.978.215-1.816v-3.546c0-.817-.07-1.412-.215-1.792-.14-.376-.392-.566-.751-.566-.347 0-.59.19-.735.566-.14.376-.215.974-.215 1.792v3.546c0 .842.066 1.449.202 1.816.136.372.384.557.743.557.364 0 .612-.186.756-.557zm36.535-2.717v.574c0 .731.021 1.276.066 1.643.041.363.132.632.268.797.136.165.347.252.632.252.384 0 .648-.149.788-.446.14-.297.219-.793.231-1.486l2.209.128c.012.099.017.235.017.409 0 1.053-.289 1.837-.863 2.357-.574.52-1.387.78-2.44.78-1.263 0-2.147-.396-2.654-1.189-.508-.793-.76-2.015-.76-3.674v-1.986c0-1.709.264-2.952.788-3.74.524-.784 1.424-1.177 2.7-1.177.879 0 1.552.161 2.023.483.471.322.801.822.995 1.503.19.681.289 1.622.289 2.82v1.949h-4.289zm.326-4.788c-.128.161-.215.425-.26.788-.045.363-.066.921-.066 1.66v.817h1.874v-.817c0-.731-.025-1.284-.074-1.66-.05-.376-.14-.644-.268-.797-.128-.153-.33-.231-.603-.231-.273-.004-.475.079-.603.24zm-45.972 4.574l-2.915-10.523h2.543l1.02 4.768c.26 1.177.45 2.176.574 3.005h.074c.087-.594.277-1.589.574-2.989l1.057-4.789h2.543l-2.948 10.527v5.049h-2.522zM51.603 16.4v11.373h-2.002l-.223-1.391h-.054c-.545 1.053-1.362 1.577-2.448 1.577-.755 0-1.313-.248-1.672-.743s-.537-1.267-.537-2.32V16.4h2.559v8.351c0 .508.054.871.165 1.086.111.215.297.326.557.326.223 0 .438-.066.64-.202s.355-.31.454-.52V16.4zm13.136 0v11.373h-2.002l-.223-1.391h-.054c-.545 1.053-1.362 1.577-2.448 1.577-.755 0-1.313-.248-1.672-.743s-.537-1.267-.537-2.32V16.4h2.559v8.351c0 .508.054.871.165 1.086.111.215.297.326.557.326.223 0 .438-.066.64-.202s.355-.31.454-.52V16.4z"/><path d="M58.563 14.266H56.02v13.508h-2.506V14.266h-2.543v-2.06h7.588v2.06zm14.651 3.955c-.157-.718-.405-1.238-.751-1.56-.347-.322-.822-.483-1.428-.483-.471 0-.908.132-1.317.4-.409.264-.722.615-.945 1.049h-.021v-5.994h-2.469v16.145h2.114l.26-1.077h.054c.198.384.495.685.892.908.396.223.834.334 1.317.334.867 0 1.503-.4 1.911-1.197.409-.797.611-2.043.611-3.74v-1.8c.003-1.272-.075-2.267-.228-2.985zm-2.349 4.64c0 .83-.033 1.478-.103 1.949-.066.471-.182.805-.343 1.003-.161.198-.376.297-.648.297-.211 0-.405-.05-.586-.149-.178-.099-.326-.248-.438-.446v-6.461c.087-.31.235-.561.446-.76.211-.198.438-.297.685-.297.26 0 .462.103.603.305.14.202.239.549.297 1.028.054.483.083 1.168.083 2.06v1.47h.004zm13.938 5.082h2.271V15.162l2.504 12.781h2.096l2.62-13.072v13.088h2.213V12.206h-3.61l-2.242 12.447-2.358-12.447h-3.494zm18.4.016h1.805V16.4h-2.446v9.127c-.408.699-1.863 1.281-1.863-.116v-9.01h-2.446v9.36c0 1.98 2.679 3.727 4.542.757zM114.441 16.4h2.271v11.559h-2.271zm1.194-1.354c-.785 0-1.427-.642-1.427-1.427v-.349c0-.785.642-1.427 1.427-1.427s1.427.642 1.427 1.427v.349c-.001.785-.642 1.427-1.427 1.427zm-4.862 5.037h1.98c.058-.961.116-3.872-2.97-3.872-2.562 0-3.261 1.63-3.261 3.086s.738 2.484 2.834 4.115c1.786.932 1.863 3.067.388 3.067-.699 0-1.126-.466-1.126-1.126v-1.048h-2.096v1.203c0 1.048.699 2.64 3.144 2.64 2.446 0 3.3-1.359 3.3-3.455s-4.425-4.154-4.425-5.59c0-1.669 2.203-1.485 2.203-.272zm10.112-.942c-.233 2.64-.039 4.658.039 5.939.106 1.744 1.941 1.747 1.941-.039V23.76H125c0 2.329-.815 4.231-3.106 4.231-2.679 0-3.455-1.902-3.455-3.921v-3.377c0-2.717 1.165-4.542 3.377-4.542 2.95 0 3.028 2.096 3.028 3.067v1.281l-1.98.155v-1.553c.001-1.086-1.358-2.056-1.979.04z"/><path fill="none" d="M0 0h125v40H0z"/></svg>