<?xml version="1.0" standalone="no"?>
<!DOCTYPE svg PUBLIC "-//W3C//DTD SVG 20010904//EN"
 "http://www.w3.org/TR/2001/REC-SVG-20010904/DTD/svg10.dtd">
<svg version="1.0" xmlns="http://www.w3.org/2000/svg"
 width="1080.000000pt" height="1080.000000pt" viewBox="0 0 1080.000000 1080.000000"
 preserveAspectRatio="xMidYMid meet">
<metadata>
Created by potrace 1.16, written by Peter Selinger 2001-2019
</metadata>
<g transform="translate(0.000000,1080.000000) scale(0.100000,-0.100000)"
fill="#000000" stroke="none">
<path d="M4965 10789 c-1127 -90 -2214 -542 -3085 -1285 -148 -126 -458 -436
-584 -584 -751 -881 -1195 -1954 -1285 -3109 -14 -174 -14 -648 0 -822 90
-1155 534 -2228 1285 -3109 126 -148 436 -458 584 -584 880 -750 1961 -1197
3109 -1286 174 -13 648 -13 822 0 1148 89 2229 536 3109 1286 148 126 458 436
584 584 751 881 1195 1954 1285 3109 14 174 14 648 0 822 -90 1155 -534 2228
-1285 3109 -126 148 -436 458 -584 584 -880 750 -1961 1197 -3109 1286 -158
12 -687 11 -846 -1z m720 -2580 c1168 -113 2160 -965 2450 -2104 64 -250 86
-433 86 -705 0 -352 -50 -645 -166 -965 -341 -944 -1192 -1656 -2175 -1819
-231 -38 -562 -50 -770 -26 -512 57 -981 238 -1377 531 -652 482 -1052 1178
-1143 1989 -14 122 -14 458 0 580 90 809 493 1511 1140 1987 563 414 1248 601
1955 532z"/>
<path d="M5175 7964 c-16 -2 -66 -9 -110 -14 -454 -59 -909 -252 -1267 -538
-464 -371 -806 -927 -916 -1492 -42 -214 -47 -262 -47 -520 0 -258 5 -306 47
-520 59 -306 193 -625 378 -903 288 -432 691 -762 1175 -961 194 -79 390 -131
635 -168 113 -17 547 -17 660 0 245 37 441 89 635 168 647 266 1153 772 1419
1419 78 191 127 377 168 630 8 50 13 176 13 335 0 258 -5 306 -47 520 -95 487
-362 972 -732 1327 -397 382 -852 607 -1420 700 -87 14 -522 27 -591 17z m518
-1869 c614 -346 1117 -632 1116 -635 0 -4 -2161 -1336 -2350 -1449 l-39 -23 0
1412 0 1411 78 -43 c43 -24 581 -326 1195 -673z"/>
</g>
</svg>
